<svg width="16" height="18" viewBox="0 0 16 18" fill="none" xmlns="http://www.w3.org/2000/svg">
<path d="M8.49707 1C12.0849 1.00021 15 3.81776 15 7.29297C14.9999 8.71564 14.5124 10.0281 13.6904 11.082C12.8683 12.1361 8.50293 17 8.50293 17C8.49683 16.9932 4.13108 12.1354 3.30957 11.082C2.48758 10.0281 2.00007 8.71564 2 7.29297C2 3.81763 4.90906 1 8.49707 1ZM8.5 4C6.84315 4 5.5 5.34315 5.5 7C5.5 8.65685 6.84315 10 8.5 10C10.1569 10 11.5 8.65685 11.5 7C11.5 5.34315 10.1569 4 8.5 4Z" fill="#A8DFFF"/>
</svg>
