<svg width="71" height="60" viewBox="0 0 71 60" fill="none" xmlns="http://www.w3.org/2000/svg">
<rect width="71" height="60" fill="white"/>
<path d="M19.0957 16.383H1V0H9.8617L19.0957 16.383Z" fill="#0039A6"/>
<path d="M29.1489 34.2552H1V17.8723H19.9149L29.1489 34.2552Z" fill="#D52B1E"/>
<path d="M70.4788 34.2552H31.6809L41.2128 17.8723H61.0213L70.4788 34.2552Z" fill="#FFD53D"/>
<path d="M60.128 16.383H42.1067L51.1173 0.744682L60.128 16.383Z" fill="#369D62"/>
<path d="M39.5003 17.8723L34.5854 26.2872L30.4152 33.5106L21.6279 17.8723H39.5003Z" fill="#C5C5C5"/>
<path d="M49.7767 -7.62939e-06L40.766 15.6383L31.6809 -7.62939e-06H49.7767Z" fill="#C5C5C5"/>
<path d="M29.1492 -7.62939e-06L20.3619 15.6383L11.5747 -7.62939e-06H29.1492Z" fill="#C5C5C5"/>
<path d="M69.3525 55.0952H68.3558C68.3273 54.9318 68.2749 54.787 68.1985 54.6608C68.1221 54.5329 68.0271 54.4245 67.9134 54.3357C67.7997 54.2469 67.67 54.1802 67.5243 54.1358C67.3804 54.0896 67.2249 54.0665 67.0579 54.0665C66.7612 54.0665 66.4983 54.1412 66.2691 54.2904C66.0399 54.4378 65.8605 54.6546 65.7308 54.9406C65.6011 55.2249 65.5363 55.5722 65.5363 55.9826C65.5363 56.4001 65.6011 56.7519 65.7308 57.0379C65.8623 57.3222 66.0417 57.5372 66.2691 57.6829C66.4983 57.8268 66.7604 57.8987 67.0553 57.8987C67.2187 57.8987 67.3715 57.8774 67.5136 57.8348C67.6576 57.7903 67.7864 57.7255 67.9001 57.6402C68.0155 57.5549 68.1124 57.4501 68.1905 57.3258C68.2705 57.2014 68.3256 57.0593 68.3558 56.8994L69.3525 56.9047C69.3151 57.1641 69.2343 57.4075 69.11 57.6349C68.9874 57.8623 68.8266 58.0631 68.6276 58.2372C68.4286 58.4095 68.1959 58.5445 67.9294 58.6422C67.6629 58.7382 67.3671 58.7861 67.042 58.7861C66.5623 58.7861 66.1341 58.6751 65.7575 58.453C65.3808 58.231 65.0841 57.9103 64.8674 57.491C64.6506 57.0717 64.5422 56.5689 64.5422 55.9826C64.5422 55.3946 64.6515 54.8918 64.87 54.4743C65.0886 54.055 65.3861 53.7343 65.7628 53.5122C66.1394 53.2901 66.5658 53.1791 67.042 53.1791C67.3458 53.1791 67.6282 53.2217 67.8894 53.307C68.1506 53.3923 68.3833 53.5176 68.5876 53.6828C68.7919 53.8462 68.9598 54.047 69.0913 54.2851C69.2245 54.5214 69.3116 54.7914 69.3525 55.0952Z" fill="#242424"/>
<path d="M59.8513 58.7115V53.2537H61.898C62.3173 53.2537 62.6691 53.3319 62.9533 53.4882C63.2394 53.6446 63.4552 53.8596 63.6009 54.1332C63.7484 54.405 63.8221 54.7141 63.8221 55.0606C63.8221 55.4106 63.7484 55.7215 63.6009 55.9933C63.4534 56.2651 63.2358 56.4792 62.948 56.6355C62.6602 56.7901 62.3057 56.8674 61.8847 56.8674H60.5282V56.0546H61.7514C61.9966 56.0546 62.1974 56.0119 62.3537 55.9267C62.51 55.8414 62.6255 55.7241 62.7001 55.5749C62.7765 55.4257 62.8147 55.2542 62.8147 55.0606C62.8147 54.8669 62.7765 54.6964 62.7001 54.5489C62.6255 54.4014 62.5092 54.2868 62.351 54.2051C62.1947 54.1216 61.993 54.0799 61.7461 54.0799H60.84V58.7115H59.8513Z" fill="#242424"/>
<path d="M55.4216 58.7862V57.9547H55.7334C55.8737 57.9547 55.9892 57.9343 56.0798 57.8934C56.1704 57.8525 56.2433 57.7939 56.2983 57.7175C56.3552 57.6411 56.4023 57.5523 56.4396 57.451L56.5115 57.2671L54.5608 53.2537H55.5948L56.9539 56.1745L58.1292 53.2537H59.1472L57.2657 57.7042C57.1787 57.8961 57.0783 58.0746 56.9646 58.2398C56.8509 58.4033 56.7025 58.5357 56.5195 58.6369C56.3383 58.7364 56.102 58.7862 55.8107 58.7862H55.4216Z" fill="#242424"/>
<path d="M53.0443 58.7115L51.2481 56.3264H50.7631V58.7115H49.7744V53.2537H50.7631V55.4976H51.0109L52.951 53.2537H54.1689L52.013 55.7428L54.2622 58.7115H53.0443Z" fill="#242424"/>
<path d="M44.1899 58.7115V53.2537H45.1786V55.5642H47.7077V53.2537H48.699V58.7115H47.7077V56.393H45.1786V58.7115H44.1899Z" fill="#242424"/>
<path d="M43.2554 55.9826C43.2554 56.5707 43.1453 57.0744 42.925 57.4937C42.7064 57.9112 42.408 58.231 42.0295 58.453C41.6529 58.6751 41.2256 58.7861 40.7477 58.7861C40.2698 58.7861 39.8416 58.6751 39.4632 58.453C39.0866 58.2292 38.7881 57.9085 38.5678 57.491C38.3493 57.0717 38.24 56.5689 38.24 55.9826C38.24 55.3946 38.3493 54.8918 38.5678 54.4743C38.7881 54.055 39.0866 53.7343 39.4632 53.5122C39.8416 53.2901 40.2698 53.1791 40.7477 53.1791C41.2256 53.1791 41.6529 53.2901 42.0295 53.5122C42.408 53.7343 42.7064 54.055 42.925 54.4743C43.1453 54.8918 43.2554 55.3946 43.2554 55.9826ZM42.2614 55.9826C42.2614 55.5687 42.1965 55.2196 42.0669 54.9353C41.9389 54.6493 41.7613 54.4334 41.5339 54.2877C41.3065 54.1403 41.0444 54.0665 40.7477 54.0665C40.451 54.0665 40.189 54.1403 39.9615 54.2877C39.7341 54.4334 39.5556 54.6493 39.4259 54.9353C39.298 55.2196 39.234 55.5687 39.234 55.9826C39.234 56.3966 39.298 56.7466 39.4259 57.0326C39.5556 57.3169 39.7341 57.5327 39.9615 57.6802C40.189 57.8259 40.451 57.8987 40.7477 57.8987C41.0444 57.8987 41.3065 57.8259 41.5339 57.6802C41.7613 57.5327 41.9389 57.3169 42.0669 57.0326C42.1965 56.7466 42.2614 56.3966 42.2614 55.9826Z" fill="#242424"/>
<path d="M36.7821 58.7115L34.9859 56.3264H34.5009V58.7115H33.5122V53.2537H34.5009V55.4976H34.7487L36.6888 53.2537H37.9067L35.7508 55.7428L38 58.7115H36.7821Z" fill="#242424"/>
<path d="M32.4549 55.5856V56.3797H29.9978V55.5856H32.4549Z" fill="#242424"/>
<path d="M23.2156 53.2537H24.4255L26.0457 57.2085H26.1097L27.73 53.2537H28.9399V58.7115H27.9912V54.962H27.9405L26.4322 58.6955H25.7233L24.2149 54.954H24.1643V58.7115H23.2156V53.2537Z" fill="#242424"/>
<path d="M18.7858 58.7862V57.9547H19.0976C19.238 57.9547 19.3535 57.9343 19.4441 57.8934C19.5347 57.8525 19.6075 57.7939 19.6626 57.7175C19.7194 57.6411 19.7665 57.5523 19.8038 57.451L19.8758 57.2671L17.925 53.2537H18.959L20.3182 56.1745L21.4934 53.2537H22.5114L20.63 57.7042C20.5429 57.8961 20.4425 58.0746 20.3288 58.2398C20.2151 58.4033 20.0668 58.5357 19.8838 58.6369C19.7026 58.7364 19.4663 58.7862 19.1749 58.7862H18.7858Z" fill="#242424"/>
<path d="M13.4685 58.7115V53.2537H15.5152C15.9345 53.2537 16.2862 53.3319 16.5705 53.4882C16.8565 53.6446 17.0724 53.8596 17.2181 54.1332C17.3655 54.405 17.4393 54.7141 17.4393 55.0606C17.4393 55.4106 17.3655 55.7215 17.2181 55.9933C17.0706 56.2651 16.853 56.4792 16.5652 56.6355C16.2774 56.7901 15.9229 56.8674 15.5019 56.8674H14.1454V56.0546H15.3686C15.6138 56.0546 15.8145 56.0119 15.9709 55.9267C16.1272 55.8414 16.2427 55.7241 16.3173 55.5749C16.3937 55.4257 16.4319 55.2542 16.4319 55.0606C16.4319 54.8669 16.3937 54.6964 16.3173 54.5489C16.2427 54.4014 16.1263 54.2868 15.9682 54.2051C15.8119 54.1216 15.6102 54.0799 15.3633 54.0799H14.4572V58.7115H13.4685Z" fill="#242424"/>
<path d="M12.5337 55.9826C12.5337 56.5707 12.4236 57.0744 12.2033 57.4937C11.9848 57.9112 11.6863 58.231 11.3079 58.453C10.9312 58.6751 10.5039 58.7861 10.026 58.7861C9.54811 58.7861 9.11994 58.6751 8.74152 58.453C8.36487 58.2292 8.0664 57.9085 7.8461 57.491C7.62757 57.0717 7.51831 56.5689 7.51831 55.9826C7.51831 55.3946 7.62757 54.8918 7.8461 54.4743C8.0664 54.055 8.36487 53.7343 8.74152 53.5122C9.11994 53.2901 9.54811 53.1791 10.026 53.1791C10.5039 53.1791 10.9312 53.2901 11.3079 53.5122C11.6863 53.7343 11.9848 54.055 12.2033 54.4743C12.4236 54.8918 12.5337 55.3946 12.5337 55.9826ZM11.5397 55.9826C11.5397 55.5687 11.4749 55.2196 11.3452 54.9353C11.2173 54.6493 11.0396 54.4334 10.8122 54.2877C10.5848 54.1403 10.3227 54.0665 10.026 54.0665C9.72933 54.0665 9.46727 54.1403 9.23986 54.2877C9.01246 54.4334 8.83391 54.6493 8.70421 54.9353C8.57629 55.2196 8.51233 55.5687 8.51233 55.9826C8.51233 56.3966 8.57629 56.7466 8.70421 57.0326C8.83391 57.3169 9.01246 57.5327 9.23986 57.6802C9.46727 57.8259 9.72933 57.8987 10.026 57.8987C10.3227 57.8987 10.5848 57.8259 10.8122 57.6802C11.0396 57.5327 11.2173 57.3169 11.3452 57.0326C11.4749 56.7466 11.5397 56.3966 11.5397 55.9826Z" fill="#242424"/>
<path d="M3.41706 53.8613H4.52035C4.94674 53.8613 5.32517 53.9528 5.65562 54.1358C5.98607 54.3188 6.24546 54.5764 6.43378 54.9087C6.62211 55.2391 6.71627 55.6264 6.71627 56.0706C6.71627 56.5041 6.62211 56.8834 6.43378 57.2085C6.24546 57.5336 5.98607 57.7868 5.65562 57.968C5.32517 58.1475 4.94674 58.2372 4.52035 58.2372H3.41706C2.9889 58.2372 2.6087 58.1483 2.27647 57.9707C1.94602 57.7912 1.68663 57.539 1.4983 57.2138C1.30998 56.8887 1.21582 56.5085 1.21582 56.0732C1.21582 55.6291 1.31087 55.2418 1.50097 54.9113C1.69107 54.5791 1.95135 54.3215 2.2818 54.1385C2.61403 53.9537 2.99245 53.8613 3.41706 53.8613ZM3.41706 54.6981C3.15768 54.6981 2.93293 54.7514 2.74283 54.858C2.55451 54.9628 2.40883 55.1174 2.30578 55.3217C2.20274 55.526 2.15122 55.7765 2.15122 56.0732C2.15122 56.3575 2.20274 56.5982 2.30578 56.7954C2.4106 56.9926 2.55806 57.1428 2.74816 57.2458C2.93826 57.3489 3.16123 57.4004 3.41706 57.4004H4.52302C4.78063 57.4004 5.00271 57.3489 5.18925 57.2458C5.37758 57.141 5.52237 56.99 5.62364 56.7928C5.72668 56.5938 5.77821 56.3531 5.77821 56.0706C5.77821 55.7774 5.72668 55.5287 5.62364 55.3244C5.52237 55.1201 5.37758 54.9646 5.18925 54.858C5.00271 54.7514 4.78063 54.6981 4.52302 54.6981H3.41706ZM4.44573 53.1578V58.9354H3.49435V53.1578H4.44573Z" fill="#242424"/>
<path d="M55.696 45.3543H56.6767V49.0745H56.7274L59.2937 45.3543H60.1811V50.8121H59.1925V47.0945H59.1471L56.5728 50.8121H55.696V45.3543ZM58.4676 43.9472H59.1898C59.1898 44.2581 59.077 44.5104 58.8513 44.704C58.6275 44.8959 58.3237 44.9918 57.9399 44.9918C57.5597 44.9918 57.2568 44.8959 57.0312 44.704C56.8073 44.5104 56.6963 44.2581 56.6981 43.9472H57.4149C57.4149 44.0751 57.454 44.1897 57.5322 44.291C57.6121 44.3905 57.7481 44.4402 57.9399 44.4402C58.1283 44.4402 58.2624 44.3905 58.3423 44.291C58.4241 44.1915 58.4658 44.0769 58.4676 43.9472Z" fill="#242424"/>
<path d="M50.1335 45.3543H51.1142V49.0745H51.1649L53.7312 45.3543H54.6186V50.8121H53.63V47.0945H53.5846L51.0103 50.8121H50.1335V45.3543Z" fill="#242424"/>
<path d="M48.244 50.8121L46.4478 48.4269H45.9628V50.8121H44.9741V45.3543H45.9628V47.5981H46.2107L48.1507 45.3543H49.3686L47.2127 47.8433L49.4619 50.8121H48.244Z" fill="#242424"/>
<path d="M44.0688 47.1958H43.0721C43.0437 47.0323 42.9912 46.8875 42.9148 46.7614C42.8385 46.6334 42.7434 46.5251 42.6297 46.4362C42.516 46.3474 42.3863 46.2808 42.2406 46.2364C42.0967 46.1902 41.9413 46.1671 41.7743 46.1671C41.4776 46.1671 41.2146 46.2417 40.9854 46.3909C40.7562 46.5384 40.5768 46.7551 40.4471 47.0412C40.3174 47.3254 40.2526 47.6728 40.2526 48.0832C40.2526 48.5007 40.3174 48.8525 40.4471 49.1385C40.5786 49.4228 40.758 49.6377 40.9854 49.7834C41.2146 49.9273 41.4767 49.9993 41.7716 49.9993C41.935 49.9993 42.0878 49.978 42.23 49.9353C42.3739 49.8909 42.5027 49.8261 42.6164 49.7408C42.7319 49.6555 42.8287 49.5507 42.9069 49.4263C42.9868 49.3019 43.0419 49.1598 43.0721 48.9999L44.0688 49.0052C44.0315 49.2646 43.9506 49.508 43.8263 49.7354C43.7037 49.9629 43.5429 50.1636 43.3439 50.3377C43.1449 50.5101 42.9122 50.6451 42.6457 50.7428C42.3792 50.8387 42.0834 50.8867 41.7583 50.8867C41.2786 50.8867 40.8504 50.7757 40.4738 50.5536C40.0971 50.3315 39.8004 50.0108 39.5837 49.5915C39.3669 49.1723 39.2585 48.6695 39.2585 48.0832C39.2585 47.4951 39.3678 46.9923 39.5863 46.5748C39.8049 46.1555 40.1024 45.8349 40.4791 45.6128C40.8557 45.3907 41.2821 45.2797 41.7583 45.2797C42.0621 45.2797 42.3445 45.3223 42.6057 45.4076C42.8669 45.4929 43.0996 45.6181 43.3039 45.7833C43.5082 45.9468 43.6761 46.1475 43.8076 46.3856C43.9409 46.6219 44.0279 46.8919 44.0688 47.1958Z" fill="#242424"/>
<path d="M33.8127 50.8121V45.3543H34.8014V47.6648H37.3305V45.3543H38.3218V50.8121H37.3305V48.4936H34.8014V50.8121H33.8127Z" fill="#242424"/>
<path d="M29.0832 50.8121H28.0278L29.9493 45.3543H31.1698L33.0939 50.8121H32.0386L30.5808 46.4735H30.5382L29.0832 50.8121ZM29.1178 48.6721H31.9959V49.4663H29.1178V48.6721Z" fill="#242424"/>
<path d="M26.4928 50.8121L24.6966 48.4269H24.2116V50.8121H23.2229V45.3543H24.2116V47.5981H24.4594L26.3995 45.3543H27.6174L25.4615 47.8433L27.7107 50.8121H26.4928Z" fill="#242424"/>
<path d="M17.6604 45.3543H18.6411V49.0745H18.6917L21.2581 45.3543H22.1455V50.8121H21.1568V47.0945H21.1115L18.5372 50.8121H17.6604V45.3543Z" fill="#242424"/>
<path d="M12.8308 50.8121V45.3543H14.8775C15.2968 45.3543 15.6485 45.4324 15.9328 45.5888C16.2188 45.7451 16.4347 45.9601 16.5804 46.2337C16.7278 46.5055 16.8016 46.8147 16.8016 47.1611C16.8016 47.5111 16.7278 47.822 16.5804 48.0938C16.4329 48.3657 16.2153 48.5797 15.9275 48.7361C15.6397 48.8906 15.2852 48.9679 14.8642 48.9679H13.5077V48.1551H14.7309C14.9761 48.1551 15.1768 48.1125 15.3332 48.0272C15.4895 47.9419 15.605 47.8247 15.6796 47.6754C15.756 47.5262 15.7942 47.3547 15.7942 47.1611C15.7942 46.9674 15.756 46.7969 15.6796 46.6494C15.605 46.502 15.4886 46.3874 15.3305 46.3056C15.1742 46.2221 14.9725 46.1804 14.7256 46.1804H13.8195V50.8121H12.8308Z" fill="#242424"/>
<path d="M8.59114 45.9619H9.69442C10.1208 45.9619 10.4992 46.0534 10.8297 46.2364C11.1601 46.4194 11.4195 46.677 11.6079 47.0092C11.7962 47.3397 11.8903 47.727 11.8903 48.1711C11.8903 48.6046 11.7962 48.9839 11.6079 49.309C11.4195 49.6342 11.1601 49.8873 10.8297 50.0686C10.4992 50.248 10.1208 50.3377 9.69442 50.3377H8.59114C8.16297 50.3377 7.78277 50.2489 7.45054 50.0712C7.12009 49.8918 6.8607 49.6395 6.67238 49.3144C6.48405 48.9893 6.38989 48.6091 6.38989 48.1738C6.38989 47.7296 6.48494 47.3423 6.67504 47.0119C6.86514 46.6796 7.12542 46.422 7.45587 46.239C7.7881 46.0543 8.16652 45.9619 8.59114 45.9619ZM8.59114 46.7987C8.33175 46.7987 8.10701 46.852 7.91691 46.9586C7.72858 47.0634 7.5829 47.218 7.47985 47.4223C7.37681 47.6266 7.32529 47.8771 7.32529 48.1738C7.32529 48.458 7.37681 48.6988 7.47985 48.896C7.58468 49.0932 7.73214 49.2433 7.92224 49.3464C8.11234 49.4494 8.3353 49.5009 8.59114 49.5009H9.69709C9.9547 49.5009 10.1768 49.4494 10.3633 49.3464C10.5516 49.2415 10.6964 49.0905 10.7977 48.8933C10.9008 48.6943 10.9523 48.4536 10.9523 48.1711C10.9523 47.878 10.9008 47.6292 10.7977 47.4249C10.6964 47.2206 10.5516 47.0652 10.3633 46.9586C10.1768 46.852 9.9547 46.7987 9.69709 46.7987H8.59114ZM9.61981 45.2583V51.0359H8.66842V45.2583H9.61981Z" fill="#242424"/>
<path d="M2.05532 50.8121H1L2.92143 45.3543H4.14197L6.06606 50.8121H5.01074L3.55302 46.4735H3.51038L2.05532 50.8121ZM2.08996 48.6721H4.9681V49.4663H2.08996V48.6721Z" fill="#242424"/>
<path d="M52.9678 39.7866V40.5808H50.5107V39.7866H52.9678Z" fill="#242424"/>
<path d="M49.5945 40.1837C49.5945 40.7718 49.4844 41.2755 49.2641 41.6947C49.0455 42.1122 48.7471 42.432 48.3687 42.6541C47.992 42.8762 47.5647 42.9872 47.0868 42.9872C46.6089 42.9872 46.1807 42.8762 45.8023 42.6541C45.4257 42.4303 45.1272 42.1096 44.9069 41.6921C44.6884 41.2728 44.5791 40.77 44.5791 40.1837C44.5791 39.5957 44.6884 39.0929 44.9069 38.6754C45.1272 38.2561 45.4257 37.9354 45.8023 37.7133C46.1807 37.4912 46.6089 37.3802 47.0868 37.3802C47.5647 37.3802 47.992 37.4912 48.3687 37.7133C48.7471 37.9354 49.0455 38.2561 49.2641 38.6754C49.4844 39.0929 49.5945 39.5957 49.5945 40.1837ZM48.6005 40.1837C48.6005 39.7698 48.5357 39.4207 48.406 39.1364C48.278 38.8504 48.1004 38.6345 47.873 38.4888C47.6456 38.3414 47.3835 38.2676 47.0868 38.2676C46.7901 38.2676 46.5281 38.3414 46.3007 38.4888C46.0732 38.6345 45.8947 38.8504 45.765 39.1364C45.6371 39.4207 45.5731 39.7698 45.5731 40.1837C45.5731 40.5977 45.6371 40.9477 45.765 41.2337C45.8947 41.518 46.0732 41.7338 46.3007 41.8813C46.5281 42.027 46.7901 42.0998 47.0868 42.0998C47.3835 42.0998 47.6456 42.027 47.873 41.8813C48.1004 41.7338 48.278 41.518 48.406 41.2337C48.5357 40.9477 48.6005 40.5977 48.6005 40.1837Z" fill="#242424"/>
<path d="M43.1214 42.9126L41.3253 40.5275H40.8403V42.9126H39.8516V37.4548H40.8403V39.6987H41.0881L43.0282 37.4548H44.2461L42.0901 39.9439L44.3393 42.9126H43.1214Z" fill="#242424"/>
<path d="M38.9462 39.2963H37.9495C37.9211 39.1328 37.8687 38.988 37.7923 38.8619C37.7159 38.734 37.6208 38.6256 37.5071 38.5368C37.3934 38.448 37.2637 38.3813 37.1181 38.3369C36.9742 38.2907 36.8187 38.2676 36.6517 38.2676C36.355 38.2676 36.0921 38.3422 35.8629 38.4915C35.6337 38.6389 35.4542 38.8557 35.3246 39.1417C35.1949 39.426 35.13 39.7733 35.13 40.1837C35.13 40.6012 35.1949 40.953 35.3246 41.239C35.456 41.5233 35.6355 41.7383 35.8629 41.884C36.0921 42.0279 36.3541 42.0998 36.649 42.0998C36.8125 42.0998 36.9653 42.0785 37.1074 42.0359C37.2513 41.9914 37.3801 41.9266 37.4938 41.8413C37.6093 41.756 37.7061 41.6512 37.7843 41.5268C37.8642 41.4025 37.9193 41.2604 37.9495 41.1005L38.9462 41.1058C38.9089 41.3652 38.8281 41.6086 38.7037 41.836C38.5811 42.0634 38.4203 42.2642 38.2213 42.4383C38.0224 42.6106 37.7896 42.7456 37.5231 42.8433C37.2566 42.9393 36.9608 42.9872 36.6357 42.9872C36.156 42.9872 35.7278 42.8762 35.3512 42.6541C34.9746 42.432 34.6779 42.1114 34.4611 41.6921C34.2444 41.2728 34.136 40.77 34.136 40.1837C34.136 39.5957 34.2452 39.0929 34.4638 38.6754C34.6823 38.2561 34.9799 37.9354 35.3565 37.7133C35.7332 37.4912 36.1596 37.3802 36.6357 37.3802C36.9395 37.3802 37.222 37.4228 37.4832 37.5081C37.7443 37.5934 37.9771 37.7186 38.1814 37.8839C38.3857 38.0473 38.5536 38.2481 38.685 38.4861C38.8183 38.7224 38.9053 38.9925 38.9462 39.2963Z" fill="#242424"/>
<path d="M28.7119 37.4548H29.6926V41.1751H29.7432L32.3096 37.4548H33.197V42.9126H32.2083V39.195H32.163L29.5887 42.9126H28.7119V37.4548ZM31.4835 36.0477H32.2057C32.2057 36.3586 32.0928 36.6109 31.8672 36.8046C31.6434 36.9964 31.3396 37.0924 30.9558 37.0924C30.5756 37.0924 30.2727 36.9964 30.0471 36.8046C29.8232 36.6109 29.7122 36.3586 29.7139 36.0477H30.4308C30.4308 36.1756 30.4699 36.2902 30.5481 36.3915C30.628 36.491 30.7639 36.5407 30.9558 36.5407C31.1441 36.5407 31.2783 36.491 31.3582 36.3915C31.4399 36.292 31.4817 36.1774 31.4835 36.0477Z" fill="#242424"/>
<path d="M23.1497 37.4548H24.1304V41.1751H24.181L26.7473 37.4548H27.6348V42.9126H26.6461V39.195H26.6008L24.0264 42.9126H23.1497V37.4548Z" fill="#242424"/>
<path d="M22.2441 39.2963H21.2474C21.2189 39.1328 21.1665 38.988 21.0901 38.8619C21.0137 38.734 20.9187 38.6256 20.805 38.5368C20.6913 38.448 20.5616 38.3813 20.4159 38.3369C20.272 38.2907 20.1165 38.2676 19.9495 38.2676C19.6528 38.2676 19.3899 38.3422 19.1607 38.4915C18.9315 38.6389 18.7521 38.8557 18.6224 39.1417C18.4927 39.426 18.4279 39.7733 18.4279 40.1837C18.4279 40.6012 18.4927 40.953 18.6224 41.239C18.7539 41.5233 18.9333 41.7383 19.1607 41.884C19.3899 42.0279 19.652 42.0998 19.9469 42.0998C20.1103 42.0998 20.2631 42.0785 20.4053 42.0359C20.5492 41.9914 20.678 41.9266 20.7917 41.8413C20.9071 41.756 21.004 41.6512 21.0821 41.5268C21.1621 41.4025 21.2172 41.2604 21.2474 41.1005L22.2441 41.1058C22.2068 41.3652 22.1259 41.6086 22.0016 41.836C21.879 42.0634 21.7182 42.2642 21.5192 42.4383C21.3202 42.6106 21.0875 42.7456 20.821 42.8433C20.5545 42.9393 20.2587 42.9872 19.9336 42.9872C19.4539 42.9872 19.0257 42.8762 18.6491 42.6541C18.2724 42.432 17.9757 42.1114 17.759 41.6921C17.5422 41.2728 17.4338 40.77 17.4338 40.1837C17.4338 39.5957 17.5431 39.0929 17.7616 38.6754C17.9802 38.2561 18.2777 37.9354 18.6544 37.7133C19.031 37.4912 19.4574 37.3802 19.9336 37.3802C20.2374 37.3802 20.5198 37.4228 20.781 37.5081C21.0422 37.5934 21.2749 37.7186 21.4792 37.8839C21.6835 38.0473 21.8514 38.2481 21.9829 38.4861C22.1161 38.7224 22.2032 38.9925 22.2441 39.2963Z" fill="#242424"/>
<path d="M16.6672 39.2963H15.6705C15.642 39.1328 15.5896 38.988 15.5132 38.8619C15.4368 38.734 15.3418 38.6256 15.2281 38.5368C15.1144 38.448 14.9847 38.3813 14.839 38.3369C14.6951 38.2907 14.5396 38.2676 14.3726 38.2676C14.0759 38.2676 13.813 38.3422 13.5838 38.4915C13.3546 38.6389 13.1752 38.8557 13.0455 39.1417C12.9158 39.426 12.851 39.7733 12.851 40.1837C12.851 40.6012 12.9158 40.953 13.0455 41.239C13.177 41.5233 13.3564 41.7383 13.5838 41.884C13.813 42.0279 14.0751 42.0998 14.37 42.0998C14.5334 42.0998 14.6862 42.0785 14.8283 42.0359C14.9723 41.9914 15.1011 41.9266 15.2148 41.8413C15.3302 41.756 15.4271 41.6512 15.5052 41.5268C15.5852 41.4025 15.6403 41.2604 15.6705 41.1005L16.6672 41.1058C16.6298 41.3652 16.549 41.6086 16.4246 41.836C16.3021 42.0634 16.1413 42.2642 15.9423 42.4383C15.7433 42.6106 15.5106 42.7456 15.2441 42.8433C14.9776 42.9393 14.6818 42.9872 14.3567 42.9872C13.877 42.9872 13.4488 42.8762 13.0721 42.6541C12.6955 42.432 12.3988 42.1114 12.1821 41.6921C11.9653 41.2728 11.8569 40.77 11.8569 40.1837C11.8569 39.5957 11.9662 39.0929 12.1847 38.6754C12.4032 38.2561 12.7008 37.9354 13.0775 37.7133C13.4541 37.4912 13.8805 37.3802 14.3567 37.3802C14.6605 37.3802 14.9429 37.4228 15.2041 37.5081C15.4653 37.5934 15.698 37.7186 15.9023 37.8839C16.1066 38.0473 16.2745 38.2481 16.406 38.4861C16.5392 38.7224 16.6263 38.9925 16.6672 39.2963Z" fill="#242424"/>
<path d="M11.0608 40.1837C11.0608 40.7718 10.9507 41.2755 10.7304 41.6947C10.5119 42.1122 10.2134 42.432 9.83496 42.6541C9.45832 42.8762 9.03104 42.9872 8.55312 42.9872C8.07521 42.9872 7.64704 42.8762 7.26862 42.6541C6.89197 42.4303 6.5935 42.1096 6.3732 41.6921C6.15467 41.2728 6.04541 40.77 6.04541 40.1837C6.04541 39.5957 6.15467 39.0929 6.3732 38.6754C6.5935 38.2561 6.89197 37.9354 7.26862 37.7133C7.64704 37.4912 8.07521 37.3802 8.55312 37.3802C9.03104 37.3802 9.45832 37.4912 9.83496 37.7133C10.2134 37.9354 10.5119 38.2561 10.7304 38.6754C10.9507 39.0929 11.0608 39.5957 11.0608 40.1837ZM10.0668 40.1837C10.0668 39.7698 10.002 39.4207 9.87227 39.1364C9.74435 38.8504 9.56669 38.6345 9.33928 38.4888C9.11187 38.3414 8.84982 38.2676 8.55312 38.2676C8.25643 38.2676 7.99437 38.3414 7.76696 38.4888C7.53956 38.6345 7.361 38.8504 7.23131 39.1364C7.10339 39.4207 7.03943 39.7698 7.03943 40.1837C7.03943 40.5977 7.10339 40.9477 7.23131 41.2337C7.361 41.518 7.53956 41.7338 7.76696 41.8813C7.99437 42.027 8.25643 42.0998 8.55312 42.0998C8.84982 42.0998 9.11187 42.027 9.33928 41.8813C9.56669 41.7338 9.74435 41.518 9.87227 41.2337C10.002 40.9477 10.0668 40.5977 10.0668 40.1837Z" fill="#242424"/>
<path d="M1.35449 42.9126V37.4548H3.40117C3.82045 37.4548 4.17223 37.533 4.45649 37.6893C4.74253 37.8457 4.95839 38.0607 5.10407 38.3343C5.25153 38.6061 5.32526 38.9152 5.32526 39.2617C5.32526 39.6117 5.25153 39.9226 5.10407 40.1944C4.95661 40.4662 4.73897 40.6803 4.45116 40.8366C4.16334 40.9912 3.80891 41.0685 3.38784 41.0685H2.03139V40.2557H3.2546C3.49977 40.2557 3.70053 40.213 3.85688 40.1278C4.01322 40.0425 4.1287 39.9252 4.20332 39.776C4.27971 39.6268 4.31791 39.4553 4.31791 39.2617C4.31791 39.068 4.27971 38.8974 4.20332 38.75C4.1287 38.6025 4.01233 38.4879 3.85421 38.4062C3.69787 38.3227 3.49622 38.281 3.24927 38.281H2.34319V42.9126H1.35449Z" fill="#242424"/>
</svg>
