<svg width="70" height="62" viewBox="0 0 70 62" fill="none" xmlns="http://www.w3.org/2000/svg">
<g clip-path="url(#clip0_632_1718)">
<rect width="70" height="62" fill="white"/>
<path d="M18.0957 16.383H0V0H8.8617L18.0957 16.383Z" fill="#0039A6"/>
<path d="M28.1489 34.2552H0V17.8723H18.9149L28.1489 34.2552Z" fill="#D52B1E"/>
<path d="M69.4785 34.2552H30.6807L40.2126 17.8723H60.0211L69.4785 34.2552Z" fill="#FFD53D"/>
<path d="M59.1277 16.383H41.1064L50.1171 0.74469L59.1277 16.383Z" fill="#369D62"/>
<path d="M38.5003 17.8723L33.5854 26.2871L29.4152 33.5106L20.6279 17.8723H38.5003Z" fill="#C5C5C5"/>
<path d="M48.7764 0L39.7658 15.6383L30.6807 0H48.7764Z" fill="#C5C5C5"/>
<path d="M28.1487 0L19.3615 15.6383L10.5742 0H28.1487Z" fill="#C5C5C5"/>
<path d="M69.255 54.806V55.5844H66.882V59.9377H65.9521V54.806H69.255Z" fill="black"/>
<path d="M62.9129 60.0065C62.4652 60.0065 62.0622 59.902 61.704 59.693C61.3481 59.4841 61.0669 59.1833 60.8602 58.7907C60.6559 58.3981 60.5537 57.9262 60.5537 57.3752C60.5537 56.8219 60.6559 56.3489 60.8602 55.9563C61.0669 55.5613 61.3481 55.2594 61.704 55.0505C62.0622 54.8415 62.4652 54.7371 62.9129 54.7371C63.3629 54.7371 63.7647 54.8415 64.1183 55.0505C64.4719 55.2594 64.752 55.5613 64.9586 55.9563C65.1653 56.3489 65.2686 56.8219 65.2686 57.3752C65.2686 57.9262 65.1653 58.3981 64.9586 58.7907C64.752 59.1833 64.4719 59.4841 64.1183 59.693C63.7647 59.902 63.3629 60.0065 62.9129 60.0065ZM62.9129 59.173C63.1907 59.173 63.4364 59.1041 63.6499 58.9663C63.8634 58.8286 64.031 58.6265 64.1527 58.3602C64.2744 58.0916 64.3353 57.7632 64.3353 57.3752C64.3353 56.9849 64.2744 56.6554 64.1527 56.3868C64.031 56.1181 63.8634 55.9149 63.6499 55.7772C63.4364 55.6394 63.1907 55.5705 62.9129 55.5705C62.6351 55.5705 62.3882 55.6394 62.1724 55.7772C61.9589 55.9149 61.7913 56.1181 61.6696 56.3868C61.5479 56.6554 61.487 56.9849 61.487 57.3752C61.487 57.7632 61.5479 58.0916 61.6696 58.3602C61.7913 58.6265 61.9589 58.8286 62.1724 58.9663C62.3882 59.1041 62.6351 59.173 62.9129 59.173Z" fill="black"/>
<path d="M55.4346 59.9377V59.1662L55.5827 59.1559C55.7801 59.1467 55.9363 59.0766 56.0511 58.9458C56.1659 58.8149 56.252 58.6048 56.3094 58.3155C56.3668 58.0262 56.4035 57.6393 56.4196 57.1549L56.5057 54.806H59.8671V59.9377H58.9578V55.5706H57.3736L57.2909 57.4442C57.268 58.0044 57.2071 58.4693 57.1084 58.839C57.0096 59.2087 56.8478 59.4842 56.6228 59.6656C56.4001 59.847 56.0889 59.9377 55.6894 59.9377H55.4346Z" fill="black"/>
<path d="M51.5178 59.9377H50.5225L52.334 54.806H53.4775L55.2856 59.9377H54.2937L52.923 55.8599H52.8816L51.5178 59.9377ZM51.5522 57.9263H54.2558V58.6702H51.5522V57.9263Z" fill="black"/>
<path d="M45.8193 54.806H46.7492V58.3017H46.794L49.2083 54.806H50.0417V59.9377H49.1118V56.442H49.0636L46.6494 59.9377H45.8193V54.806Z" fill="black"/>
<path d="M40.2275 61.1741V59.1765H40.5719C40.689 59.0847 40.797 58.9561 40.8957 58.7908C40.9967 58.6232 41.0817 58.3936 41.1505 58.102C41.2217 57.8104 41.2711 57.435 41.2986 56.9758L41.433 54.806H44.7082V59.1765H45.2834V61.1706H44.3914V59.9377H41.1195V61.1741H40.2275ZM41.6568 59.1765H43.8162V55.5844H42.2664L42.1906 56.9758C42.17 57.3248 42.1344 57.6382 42.0839 57.916C42.0357 58.1915 41.9748 58.4338 41.9013 58.6427C41.8279 58.8493 41.7464 59.0273 41.6568 59.1765Z" fill="black"/>
<path d="M33.9658 54.8061H34.8957V58.3018H34.9405L37.3548 54.8061H38.1882V59.9378H37.2583V56.4421H37.2101L34.7958 59.9378H33.9658V54.8061ZM36.077 54.3653C35.7303 54.3653 35.4479 54.2723 35.2298 54.0863C35.014 53.9004 34.906 53.657 34.906 53.3562H35.5845C35.5845 53.5009 35.6293 53.6179 35.7188 53.7075C35.8084 53.7947 35.9278 53.8384 36.077 53.8384C36.2263 53.8384 36.3457 53.7947 36.4352 53.7075C36.5247 53.6179 36.5695 53.5009 36.5695 53.3562H37.2514C37.2514 53.657 37.1424 53.9004 36.9243 54.0863C36.7084 54.2723 36.426 54.3653 36.077 54.3653Z" fill="black"/>
<path d="M30.9275 60.0065C30.4798 60.0065 30.0769 59.902 29.7187 59.693C29.3628 59.4841 29.0815 59.1833 28.8749 58.7907C28.6705 58.3981 28.5684 57.9262 28.5684 57.3752C28.5684 56.8219 28.6705 56.3489 28.8749 55.9563C29.0815 55.5613 29.3628 55.2594 29.7187 55.0505C30.0769 54.8415 30.4798 54.7371 30.9275 54.7371C31.3776 54.7371 31.7794 54.8415 32.1329 55.0505C32.4865 55.2594 32.7666 55.5613 32.9733 55.9563C33.1799 56.3489 33.2833 56.8219 33.2833 57.3752C33.2833 57.9262 33.1799 58.3981 32.9733 58.7907C32.7666 59.1833 32.4865 59.4841 32.1329 59.693C31.7794 59.902 31.3776 60.0065 30.9275 60.0065ZM30.9275 59.173C31.2054 59.173 31.451 59.1041 31.6646 58.9663C31.8781 58.8286 32.0457 58.6265 32.1674 58.3602C32.2891 58.0916 32.3499 57.7632 32.3499 57.3752C32.3499 56.9849 32.2891 56.6554 32.1674 56.3868C32.0457 56.1181 31.8781 55.9149 31.6646 55.7772C31.451 55.6394 31.2054 55.5705 30.9275 55.5705C30.6497 55.5705 30.4029 55.6394 30.1871 55.7772C29.9735 55.9149 29.8059 56.1181 29.6842 56.3868C29.5625 56.6554 29.5017 56.9849 29.5017 57.3752C29.5017 57.7632 29.5625 58.0916 29.6842 58.3602C29.8059 58.6265 29.9735 58.8286 30.1871 58.9663C30.4029 59.1041 30.6497 59.173 30.9275 59.173Z" fill="black"/>
<path d="M24.251 59.9377V54.806H26.221C26.5906 54.806 26.8983 54.8646 27.144 54.9817C27.3896 55.0965 27.5733 55.2549 27.695 55.457C27.8167 55.6567 27.8776 55.8829 27.8776 56.1354C27.8776 56.3444 27.8374 56.5235 27.757 56.6727C27.6789 56.8196 27.5722 56.939 27.4367 57.0309C27.3013 57.1227 27.1497 57.1893 26.9821 57.2306V57.2823C27.1658 57.2892 27.3403 57.3443 27.5056 57.4476C27.6732 57.5486 27.8098 57.691 27.9154 57.8747C28.0234 58.0584 28.0773 58.2799 28.0773 58.5394C28.0773 58.8057 28.013 59.0445 27.8844 59.2557C27.7582 59.4647 27.5653 59.6311 27.3058 59.7551C27.0487 59.8768 26.7238 59.9377 26.3312 59.9377H24.251ZM25.1809 59.1627H26.1796C26.5172 59.1627 26.7605 59.0973 26.9098 58.9664C27.0613 58.8356 27.1371 58.6691 27.1371 58.4671C27.1371 58.3132 27.0992 58.1755 27.0234 58.0538C26.9477 57.9321 26.8398 57.8356 26.6997 57.7645C26.5619 57.6933 26.3989 57.6577 26.2106 57.6577H25.1809V59.1627ZM25.1809 56.9896H26.1039C26.2623 56.9896 26.4058 56.9597 26.5344 56.9C26.663 56.8403 26.764 56.7565 26.8375 56.6486C26.9132 56.5384 26.9511 56.4087 26.9511 56.2594C26.9511 56.062 26.8811 55.8989 26.741 55.7704C26.601 55.6395 26.3955 55.5741 26.1245 55.5741H25.1809V56.9896Z" fill="black"/>
<path d="M20.1572 59.9378V54.8062H23.498V55.5845H21.0871V56.9621H23.3189V57.7301H21.0871V59.1594H23.5117V59.9378H20.1572Z" fill="black"/>
<path d="M16.3611 56.7898H17.6595C18.0545 56.7898 18.392 56.8541 18.6721 56.9827C18.9545 57.1089 19.1715 57.288 19.323 57.5199C19.4746 57.7518 19.5492 58.0251 19.5469 58.3396C19.5492 58.6542 19.4746 58.932 19.323 59.1731C19.1715 59.4119 18.9545 59.599 18.6721 59.7345C18.392 59.8699 18.0545 59.9377 17.6595 59.9377H15.7412V54.806H16.6711V59.1731H17.6595C17.8708 59.1731 18.0476 59.134 18.1899 59.056C18.3323 58.9779 18.4402 58.8746 18.5137 58.746C18.5894 58.6174 18.6273 58.4785 18.6273 58.3293C18.6273 58.1135 18.5447 57.9286 18.3793 57.7748C18.214 57.621 17.9741 57.5452 17.6595 57.5475H16.3611V56.7898Z" fill="black"/>
<path d="M11.3926 59.9377V54.806H13.3178C13.7127 54.806 14.0433 54.8795 14.3097 55.0264C14.5783 55.1734 14.7815 55.3754 14.9193 55.6326C15.057 55.8898 15.1259 56.1814 15.1259 56.5074C15.1259 56.8357 15.0559 57.1285 14.9158 57.3856C14.7781 57.6405 14.5737 57.8414 14.3028 57.9883C14.0319 58.133 13.6989 58.2053 13.304 58.2053H12.0297V57.4407H13.1766C13.4085 57.4407 13.5979 57.4017 13.7449 57.3236C13.8941 57.2433 14.0032 57.1331 14.072 56.993C14.1432 56.8506 14.1788 56.6888 14.1788 56.5074C14.1788 56.3237 14.1432 56.163 14.072 56.0252C14.0032 55.8852 13.8941 55.7773 13.7449 55.7015C13.5979 55.6234 13.4073 55.5844 13.1731 55.5844H12.3225V59.9377H11.3926Z" fill="black"/>
<path d="M6.01153 56.7899H7.30993C7.70485 56.7899 8.04237 56.8542 8.32248 56.9828C8.6049 57.1091 8.82187 57.2882 8.97341 57.5201C9.12495 57.752 9.19957 58.0252 9.19727 58.3397C9.19957 58.6543 9.12495 58.9321 8.97341 59.1732C8.82187 59.412 8.6049 59.5991 8.32248 59.7346C8.04237 59.87 7.70485 59.9378 7.30993 59.9378H5.3916V54.8062H6.32149V59.1732H7.30993C7.52117 59.1732 7.69796 59.1342 7.84032 59.0561C7.98267 58.978 8.09058 58.8747 8.16406 58.7461C8.23983 58.6176 8.27771 58.4787 8.27771 58.3294C8.27771 58.1136 8.19505 57.9288 8.02974 57.7749C7.86443 57.6211 7.62449 57.5453 7.30993 57.5476H6.01153V56.7899ZM10.5783 54.8062V59.9378H9.64844V54.8062H10.5783Z" fill="black"/>
<path d="M2.55587 60.0065C2.10585 60.0065 1.70289 59.902 1.34701 59.693C0.993421 59.4841 0.714454 59.1833 0.510107 58.7907C0.308057 58.3981 0.207031 57.9262 0.207031 57.3752C0.207031 56.8219 0.309205 56.3489 0.513551 55.9563C0.720194 55.5613 1.00031 55.2594 1.3539 55.0505C1.70978 54.8415 2.11044 54.7371 2.55587 54.7371C2.83828 54.7371 3.10232 54.7772 3.348 54.8576C3.59597 54.938 3.81639 55.0562 4.00926 55.2123C4.20212 55.3662 4.3594 55.5556 4.48109 55.7806C4.60508 56.0033 4.68659 56.257 4.72562 56.5417H3.78884C3.76358 56.3856 3.71422 56.2478 3.64074 56.1285C3.56957 56.0091 3.48002 55.908 3.37211 55.8254C3.26649 55.7404 3.14595 55.6773 3.01048 55.636C2.87502 55.5923 2.72922 55.5705 2.57309 55.5705C2.29297 55.5705 2.045 55.6405 1.82918 55.7806C1.61335 55.9184 1.44459 56.1227 1.3229 56.3936C1.20121 56.6623 1.14037 56.9895 1.14037 57.3752C1.14037 57.7655 1.20121 58.095 1.3229 58.3636C1.44689 58.63 1.61565 58.832 1.82918 58.9698C2.045 59.1053 2.29183 59.173 2.56965 59.173C2.72348 59.173 2.86698 59.1535 3.00015 59.1144C3.13332 59.0731 3.25386 59.0123 3.36178 58.9319C3.47199 58.8493 3.56268 58.7505 3.63386 58.6357C3.70733 58.5186 3.75899 58.3843 3.78884 58.2328H4.72562C4.69118 58.4784 4.61541 58.7092 4.49831 58.925C4.38351 59.1386 4.23197 59.3268 4.0437 59.4898C3.85772 59.6506 3.6396 59.7768 3.38933 59.8687C3.13906 59.9605 2.86124 60.0065 2.55587 60.0065Z" fill="black"/>
<path d="M49.4766 46.7449H50.4065V50.2406H50.4512L52.8655 46.7449H53.699V51.8765H52.7691V48.3808H52.7209L50.3066 51.8765H49.4766V46.7449ZM51.5878 46.304C51.2411 46.304 50.9586 46.211 50.7405 46.0251C50.5247 45.8391 50.4168 45.5957 50.4168 45.2949H51.0953C51.0953 45.4396 51.14 45.5567 51.2296 45.6462C51.3191 45.7335 51.4385 45.7771 51.5878 45.7771C51.737 45.7771 51.8564 45.7335 51.9459 45.6462C52.0355 45.5567 52.0803 45.4396 52.0803 45.2949H52.7622C52.7622 45.5957 52.6531 45.8391 52.435 46.0251C52.2192 46.211 51.9368 46.304 51.5878 46.304Z" fill="black"/>
<path d="M44.4395 46.745H45.3693V50.2407H45.4141L47.8284 46.745H48.6619V51.8766H47.732V48.3809H47.6837L45.2695 51.8766H44.4395V46.745Z" fill="black"/>
<path d="M42.8568 51.8766L41.0762 49.6345H40.7111V51.8766H39.7812V46.745H40.7111V48.8528H41.0659L42.7672 46.745H43.9141L41.8856 49.2316L44.0036 51.8766H42.8568Z" fill="black"/>
<path d="M36.9465 51.9455C36.4965 51.9455 36.0935 51.8411 35.7376 51.6321C35.384 51.4232 35.1051 51.1224 34.9007 50.7298C34.6987 50.3372 34.5977 49.8653 34.5977 49.3143C34.5977 48.7609 34.6998 48.288 34.9042 47.8953C35.1108 47.5004 35.3909 47.1985 35.7445 46.9896C36.1004 46.7806 36.5011 46.6761 36.9465 46.6761C37.2289 46.6761 37.4929 46.7163 37.7386 46.7967C37.9866 46.8771 38.207 46.9953 38.3999 47.1514C38.5927 47.3053 38.75 47.4947 38.8717 47.7197C38.9957 47.9424 39.0772 48.1961 39.1162 48.4808H38.1795C38.1542 48.3247 38.1048 48.1869 38.0314 48.0675C37.9602 47.9481 37.8706 47.8471 37.7627 47.7645C37.6571 47.6795 37.5366 47.6164 37.4011 47.575C37.2656 47.5314 37.1198 47.5096 36.9637 47.5096C36.6836 47.5096 36.4356 47.5796 36.2198 47.7197C36.004 47.8575 35.8352 48.0618 35.7135 48.3327C35.5918 48.6014 35.531 48.9286 35.531 49.3143C35.531 49.7046 35.5918 50.0341 35.7135 50.3027C35.8375 50.5691 36.0063 50.7711 36.2198 50.9089C36.4356 51.0443 36.6825 51.1121 36.9603 51.1121C37.1141 51.1121 37.2576 51.0926 37.3908 51.0535C37.5239 51.0122 37.6445 50.9514 37.7524 50.871C37.8626 50.7883 37.9533 50.6896 38.0245 50.5748C38.098 50.4577 38.1496 50.3234 38.1795 50.1719H39.1162C39.0818 50.4175 39.006 50.6483 38.8889 50.8641C38.7741 51.0776 38.6226 51.2659 38.4343 51.4289C38.2483 51.5897 38.0302 51.7159 37.78 51.8078C37.5297 51.8996 37.2519 51.9455 36.9465 51.9455Z" fill="black"/>
<path d="M29.6738 51.8766V46.745H30.6037V48.9182H32.9801V46.745H33.91V51.8766H32.9801V49.7H30.6037V51.8766H29.6738Z" fill="black"/>
<path d="M25.4211 51.8766H24.4258L26.2373 46.745H27.3808L29.1889 51.8766H28.197L26.8263 47.7989H26.785L25.4211 51.8766ZM25.4556 49.8653H28.1591V50.6092H25.4556V49.8653Z" fill="black"/>
<path d="M23.1781 51.8767L21.3975 49.6347H21.0324V51.8767H20.1025V46.7451H21.0324V48.8529H21.3872L23.0885 46.7451H24.2354L22.2069 49.2317L24.3249 51.8767H23.1781Z" fill="black"/>
<path d="M15.0654 46.745H15.9953V50.2407H16.0401L18.4544 46.745H19.2878V51.8766H18.3579V48.3809H18.3097L15.8954 51.8766H15.0654V46.745Z" fill="black"/>
<path d="M10.7178 51.8766V46.745H12.643C13.0379 46.745 13.3685 46.8185 13.6349 46.9654C13.9035 47.1124 14.1067 47.3144 14.2445 47.5716C14.3822 47.8287 14.4511 48.1203 14.4511 48.4464C14.4511 48.7747 14.3811 49.0674 14.241 49.3246C14.1033 49.5794 13.8989 49.7803 13.628 49.9273C13.3571 50.0719 13.0241 50.1443 12.6292 50.1443H11.3549V49.3797H12.5018C12.7337 49.3797 12.9231 49.3407 13.0701 49.2626C13.2193 49.1822 13.3284 49.072 13.3972 48.932C13.4684 48.7896 13.504 48.6277 13.504 48.4464C13.504 48.2627 13.4684 48.1019 13.3972 47.9642C13.3284 47.8241 13.2193 47.7162 13.0701 47.6404C12.9231 47.5624 12.7325 47.5233 12.4983 47.5233H11.6477V51.8766H10.7178Z" fill="black"/>
<path d="M6.93166 47.3168H7.96832C8.37012 47.3168 8.72601 47.404 9.03597 47.5785C9.34594 47.7507 9.58932 47.9918 9.76611 48.3018C9.9452 48.6117 10.0347 48.9757 10.0347 49.3935C10.0347 49.7999 9.9452 50.157 9.76611 50.4646C9.58932 50.77 9.34594 51.0076 9.03597 51.1775C8.72601 51.3475 8.37012 51.4324 7.96832 51.4324H6.93166C6.52986 51.4324 6.17282 51.3486 5.86056 51.181C5.5506 51.0111 5.30722 50.7734 5.13043 50.4681C4.95363 50.1627 4.86523 49.8057 4.86523 49.397C4.86523 48.9768 4.95363 48.6117 5.13043 48.3018C5.30952 47.9918 5.55404 47.7507 5.86401 47.5785C6.17627 47.404 6.53215 47.3168 6.93166 47.3168ZM6.93166 48.1055C6.69058 48.1055 6.48049 48.156 6.3014 48.257C6.12231 48.3557 5.98455 48.5004 5.88812 48.6909C5.79168 48.8815 5.74232 49.1169 5.74002 49.397C5.74232 49.6633 5.79168 49.8895 5.88812 50.0755C5.98685 50.2614 6.12575 50.4026 6.30485 50.4991C6.48394 50.5955 6.69287 50.6437 6.93166 50.6437H7.97521C8.21629 50.6437 8.42408 50.5955 8.59858 50.4991C8.77537 50.4003 8.91199 50.258 9.00842 50.072C9.10485 49.8837 9.15307 49.6576 9.15307 49.3935C9.15307 49.118 9.10485 48.885 9.00842 48.6944C8.91199 48.5015 8.77537 48.3557 8.59858 48.257C8.42408 48.156 8.21629 48.1055 7.97521 48.1055H6.93166ZM7.89944 46.6555V52.0902H7.00399V46.6555H7.89944Z" fill="black"/>
<path d="M0.995329 51.8766H0L1.81157 46.745H2.95499L4.76311 51.8766H3.77123L2.4005 47.7989H2.35917L0.995329 51.8766ZM1.02977 49.8653H3.73334V50.6092H1.02977V49.8653Z" fill="black"/>
<path d="M47.1425 41.3083V42.0522H44.835V41.3083H47.1425Z" fill="black"/>
<path d="M41.8142 43.8844C41.3665 43.8844 40.9636 43.7799 40.6054 43.571C40.2495 43.362 39.9682 43.0613 39.7616 42.6686C39.5573 42.276 39.4551 41.8042 39.4551 41.2531C39.4551 40.6998 39.5573 40.2268 39.7616 39.8342C39.9682 39.4393 40.2495 39.1373 40.6054 38.9284C40.9636 38.7195 41.3665 38.615 41.8142 38.615C42.2643 38.615 42.6661 38.7195 43.0197 38.9284C43.3733 39.1373 43.6534 39.4393 43.86 39.8342C44.0667 40.2268 44.17 40.6998 44.17 41.2531C44.17 41.8042 44.0667 42.276 43.86 42.6686C43.6534 43.0613 43.3733 43.362 43.0197 43.571C42.6661 43.7799 42.2643 43.8844 41.8142 43.8844ZM41.8142 43.0509C42.0921 43.0509 42.3377 42.982 42.5513 42.8443C42.7648 42.7065 42.9324 42.5045 43.0541 42.2381C43.1758 41.9695 43.2366 41.6412 43.2366 41.2531C43.2366 40.8628 43.1758 40.5333 43.0541 40.2647C42.9324 39.9961 42.7648 39.7929 42.5513 39.6551C42.3377 39.5173 42.0921 39.4484 41.8142 39.4484C41.5364 39.4484 41.2896 39.5173 41.0738 39.6551C40.8602 39.7929 40.6926 39.9961 40.5709 40.2647C40.4493 40.5333 40.3884 40.8628 40.3884 41.2531C40.3884 41.6412 40.4493 41.9695 40.5709 42.2381C40.6926 42.5045 40.8602 42.7065 41.0738 42.8443C41.2896 42.982 41.5364 43.0509 41.8142 43.0509Z" fill="black"/>
<path d="M38.2748 43.8155L36.4942 41.5735H36.1291V43.8155H35.1992V38.6839H36.1291V40.7917H36.4838L38.1852 38.6839H39.3321L37.3035 41.1705L39.4216 43.8155H38.2748Z" fill="black"/>
<path d="M32.3635 43.8844C31.9135 43.8844 31.5105 43.7799 31.1546 43.571C30.801 43.362 30.5221 43.0613 30.3177 42.6686C30.1157 42.276 30.0146 41.8042 30.0146 41.2531C30.0146 40.6998 30.1168 40.2268 30.3212 39.8342C30.5278 39.4393 30.8079 39.1373 31.1615 38.9284C31.5174 38.7195 31.9181 38.615 32.3635 38.615C32.6459 38.615 32.9099 38.6552 33.1556 38.7355C33.4036 38.8159 33.624 38.9341 33.8169 39.0903C34.0097 39.2441 34.167 39.4335 34.2887 39.6585C34.4127 39.8813 34.4942 40.135 34.5332 40.4197H33.5965C33.5712 40.2635 33.5218 40.1258 33.4484 40.0064C33.3772 39.887 33.2876 39.786 33.1797 39.7033C33.0741 39.6184 32.9536 39.5552 32.8181 39.5139C32.6826 39.4703 32.5368 39.4484 32.3807 39.4484C32.1006 39.4484 31.8526 39.5185 31.6368 39.6585C31.421 39.7963 31.2522 40.0006 31.1305 40.2716C31.0088 40.5402 30.948 40.8674 30.948 41.2531C30.948 41.6435 31.0088 41.9729 31.1305 42.2416C31.2545 42.5079 31.4233 42.71 31.6368 42.8477C31.8526 42.9832 32.0994 43.0509 32.3773 43.0509C32.5311 43.0509 32.6746 43.0314 32.8078 42.9924C32.9409 42.951 33.0615 42.8902 33.1694 42.8098C33.2796 42.7272 33.3703 42.6285 33.4415 42.5136C33.5149 42.3966 33.5666 42.2622 33.5965 42.1107H34.5332C34.4988 42.3564 34.423 42.5871 34.3059 42.8029C34.1911 43.0165 34.0396 43.2048 33.8513 43.3678C33.6653 43.5285 33.4472 43.6548 33.1969 43.7466C32.9467 43.8385 32.6689 43.8844 32.3635 43.8844Z" fill="black"/>
<path d="M25.1055 38.684H26.0354V42.1797H26.0801L28.4944 38.684H29.3279V43.8156H28.398V40.3199H28.3498L25.9355 43.8156H25.1055V38.684ZM27.2167 38.2431C26.87 38.2431 26.5876 38.1501 26.3694 37.9641C26.1536 37.7782 26.0457 37.5348 26.0457 37.234H26.7242C26.7242 37.3787 26.7689 37.4958 26.8585 37.5853C26.948 37.6726 27.0674 37.7162 27.2167 37.7162C27.3659 37.7162 27.4853 37.6726 27.5748 37.5853C27.6644 37.4958 27.7092 37.3787 27.7092 37.234H28.3911C28.3911 37.5348 28.282 37.7782 28.0639 37.9641C27.8481 38.1501 27.5657 38.2431 27.2167 38.2431Z" fill="black"/>
<path d="M20.0684 38.6839H20.9983V42.1796H21.043L23.4573 38.6839H24.2908V43.8155H23.3609V40.3198H23.3126L20.8984 43.8155H20.0684V38.6839Z" fill="black"/>
<path d="M17.2326 43.8843C16.7826 43.8843 16.3797 43.7798 16.0238 43.5709C15.6702 43.362 15.3912 43.0612 15.1869 42.6686C14.9848 42.2759 14.8838 41.8041 14.8838 41.2531C14.8838 40.6997 14.986 40.2267 15.1903 39.8341C15.397 39.4392 15.6771 39.1373 16.0307 38.9283C16.3865 38.7194 16.7872 38.6149 17.2326 38.6149C17.515 38.6149 17.7791 38.6551 18.0248 38.7355C18.2727 38.8158 18.4931 38.9341 18.686 39.0902C18.8789 39.244 19.0362 39.4335 19.1578 39.6585C19.2818 39.8812 19.3633 40.1349 19.4024 40.4196H18.4656C18.4403 40.2635 18.391 40.1257 18.3175 40.0063C18.2463 39.8869 18.1568 39.7859 18.0489 39.7032C17.9432 39.6183 17.8227 39.5552 17.6872 39.5138C17.5518 39.4702 17.406 39.4484 17.2498 39.4484C16.9697 39.4484 16.7218 39.5184 16.5059 39.6585C16.2901 39.7962 16.1213 40.0006 15.9997 40.2715C15.878 40.5402 15.8171 40.8673 15.8171 41.2531C15.8171 41.6434 15.878 41.9729 15.9997 42.2415C16.1236 42.5078 16.2924 42.7099 16.5059 42.8477C16.7218 42.9831 16.9686 43.0509 17.2464 43.0509C17.4002 43.0509 17.5437 43.0313 17.6769 42.9923C17.8101 42.951 17.9306 42.8901 18.0385 42.8098C18.1487 42.7271 18.2394 42.6284 18.3106 42.5136C18.3841 42.3965 18.4357 42.2622 18.4656 42.1106H19.4024C19.3679 42.3563 19.2922 42.5871 19.1751 42.8029C19.0603 43.0164 18.9087 43.2047 18.7205 43.3677C18.5345 43.5284 18.3164 43.6547 18.0661 43.7466C17.8158 43.8384 17.538 43.8843 17.2326 43.8843Z" fill="black"/>
<path d="M12.174 43.8844C11.724 43.8844 11.3211 43.7799 10.9652 43.571C10.6116 43.362 10.3326 43.0613 10.1283 42.6686C9.92622 42.276 9.8252 41.8042 9.8252 41.2531C9.8252 40.6998 9.92737 40.2268 10.1317 39.8342C10.3384 39.4393 10.6185 39.1373 10.9721 38.9284C11.3279 38.7195 11.7286 38.615 12.174 38.615C12.4564 38.615 12.7205 38.6552 12.9662 38.7355C13.2141 38.8159 13.4346 38.9341 13.6274 39.0903C13.8203 39.2441 13.9776 39.4335 14.0993 39.6585C14.2232 39.8813 14.3047 40.135 14.3438 40.4197H13.407C13.3817 40.2635 13.3324 40.1258 13.2589 40.0064C13.1877 39.887 13.0982 39.786 12.9903 39.7033C12.8847 39.6184 12.7641 39.5552 12.6286 39.5139C12.4932 39.4703 12.3474 39.4484 12.1913 39.4484C11.9111 39.4484 11.6632 39.5185 11.4473 39.6585C11.2315 39.7963 11.0628 40.0006 10.9411 40.2716C10.8194 40.5402 10.7585 40.8674 10.7585 41.2531C10.7585 41.6435 10.8194 41.9729 10.9411 42.2416C11.0651 42.5079 11.2338 42.71 11.4473 42.8477C11.6632 42.9832 11.91 43.0509 12.1878 43.0509C12.3416 43.0509 12.4851 43.0314 12.6183 42.9924C12.7515 42.951 12.872 42.8902 12.9799 42.8098C13.0901 42.7272 13.1808 42.6285 13.252 42.5136C13.3255 42.3966 13.3772 42.2622 13.407 42.1107H14.3438C14.3093 42.3564 14.2336 42.5871 14.1165 42.8029C14.0017 43.0165 13.8501 43.2048 13.6619 43.3678C13.4759 43.5285 13.2578 43.6548 13.0075 43.7466C12.7572 43.8385 12.4794 43.8844 12.174 43.8844Z" fill="black"/>
<path d="M6.91386 43.8843C6.46613 43.8843 6.06318 43.7798 5.705 43.5709C5.34911 43.362 5.06785 43.0612 4.86121 42.6686C4.65686 42.2759 4.55469 41.8041 4.55469 41.2531C4.55469 40.6997 4.65686 40.2267 4.86121 39.8341C5.06785 39.4392 5.34911 39.1373 5.705 38.9283C6.06318 38.7194 6.46613 38.6149 6.91386 38.6149C7.36388 38.6149 7.76568 38.7194 8.11927 38.9283C8.47286 39.1373 8.75298 39.4392 8.95962 39.8341C9.16626 40.2267 9.26958 40.6997 9.26958 41.2531C9.26958 41.8041 9.16626 42.2759 8.95962 42.6686C8.75298 43.0612 8.47286 43.362 8.11927 43.5709C7.76568 43.7798 7.36388 43.8843 6.91386 43.8843ZM6.91386 43.0509C7.19168 43.0509 7.43735 42.982 7.65088 42.8442C7.86441 42.7065 8.03202 42.5044 8.15371 42.2381C8.2754 41.9694 8.33625 41.6411 8.33625 41.2531C8.33625 40.8627 8.2754 40.5333 8.15371 40.2646C8.03202 39.996 7.86441 39.7928 7.65088 39.655C7.43735 39.5173 7.19168 39.4484 6.91386 39.4484C6.63604 39.4484 6.38922 39.5173 6.17339 39.655C5.95986 39.7928 5.79225 39.996 5.67056 40.2646C5.54887 40.5333 5.48802 40.8627 5.48802 41.2531C5.48802 41.6411 5.54887 41.9694 5.67056 42.2381C5.79225 42.5044 5.95986 42.7065 6.17339 42.8442C6.38922 42.982 6.63604 43.0509 6.91386 43.0509Z" fill="black"/>
<path d="M0.333984 43.8155V38.6839H2.25921C2.65412 38.6839 2.98475 38.7574 3.25109 38.9043C3.51973 39.0513 3.72292 39.2533 3.86069 39.5105C3.99845 39.7676 4.06733 40.0592 4.06733 40.3853C4.06733 40.7136 3.9973 41.0063 3.85724 41.2635C3.71948 41.5183 3.51513 41.7193 3.2442 41.8662C2.97327 42.0108 2.64035 42.0832 2.24543 42.0832H0.971133V41.3186H2.118C2.3499 41.3186 2.53932 41.2796 2.68627 41.2015C2.83551 41.1211 2.94457 41.0109 3.01345 40.8709C3.08463 40.7285 3.12022 40.5666 3.12022 40.3853C3.12022 40.2016 3.08463 40.0409 3.01345 39.9031C2.94457 39.763 2.83551 39.6551 2.68627 39.5794C2.53932 39.5013 2.34875 39.4623 2.11456 39.4623H1.26388V43.8155H0.333984Z" fill="black"/>
</g>
<defs>
<clipPath id="clip0_632_1718">
<rect width="70" height="62" fill="white"/>
</clipPath>
</defs>
</svg>
