<svg width="164" height="35" viewBox="0 0 164 35" fill="none" xmlns="http://www.w3.org/2000/svg">
<g clip-path="url(#clip0_6000_583)">
<rect width="164" height="35" fill="white"/>
<path d="M17.1897 17.0225H0V1.45981H8.41801L17.1897 17.0225Z" fill="#0039A6"/>
<path d="M26.7395 34H0V18.4373H17.9678L26.7395 34Z" fill="#D52B1E"/>
<path d="M66.0001 34H29.1448L38.1994 18.4373H57.0162L66.0001 34Z" fill="#FFD53D"/>
<path d="M56.1673 17.0225H39.0483L47.6078 2.1672L56.1673 17.0225Z" fill="#369D62"/>
<path d="M36.5725 18.4373L31.9037 26.4309L27.9422 33.2926L19.595 18.4373H36.5725Z" fill="#C5C5C5"/>
<path d="M46.3345 1.45981L37.775 16.3151L29.1448 1.45981H46.3345Z" fill="#C5C5C5"/>
<path d="M26.7395 1.45981L18.3922 16.3151L10.0449 1.45981H26.7395Z" fill="#C5C5C5"/>
<path d="M67.7532 10V2.36364H70.6168C71.2035 2.36364 71.6957 2.47301 72.0934 2.69176C72.4936 2.91051 72.7956 3.21129 72.9995 3.5941C73.2058 3.97443 73.3089 4.40696 73.3089 4.89169C73.3089 5.38139 73.2058 5.81641 72.9995 6.19673C72.7931 6.57706 72.4886 6.8766 72.0859 7.09535C71.6832 7.31161 71.1873 7.41974 70.5982 7.41974H68.7003V6.28249H70.4118C70.7548 6.28249 71.0357 6.22283 71.2544 6.10352C71.4732 5.9842 71.6348 5.82013 71.7392 5.61133C71.8461 5.40252 71.8995 5.16264 71.8995 4.89169C71.8995 4.62074 71.8461 4.3821 71.7392 4.17578C71.6348 3.96946 71.4719 3.80913 71.2507 3.69478C71.032 3.57795 70.7498 3.51953 70.4043 3.51953H69.1365V10H67.7532ZM81.334 6.18182C81.334 7.00462 81.1799 7.70934 80.8717 8.29599C80.5659 8.88015 80.1483 9.32759 79.6188 9.63832C79.0918 9.94904 78.494 10.1044 77.8253 10.1044C77.1566 10.1044 76.5576 9.94904 76.0281 9.63832C75.5011 9.32511 75.0835 8.87642 74.7753 8.29226C74.4695 7.70561 74.3166 7.00213 74.3166 6.18182C74.3166 5.35902 74.4695 4.65554 74.7753 4.07138C75.0835 3.48473 75.5011 3.03604 76.0281 2.72532C76.5576 2.41459 77.1566 2.25923 77.8253 2.25923C78.494 2.25923 79.0918 2.41459 79.6188 2.72532C80.1483 3.03604 80.5659 3.48473 80.8717 4.07138C81.1799 4.65554 81.334 5.35902 81.334 6.18182ZM79.9432 6.18182C79.9432 5.60263 79.8525 5.11417 79.671 4.71644C79.4921 4.31623 79.2435 4.0142 78.9253 3.81037C78.6071 3.60405 78.2405 3.50089 77.8253 3.50089C77.4102 3.50089 77.0435 3.60405 76.7254 3.81037C76.4072 4.0142 76.1574 4.31623 75.9759 4.71644C75.7969 5.11417 75.7074 5.60263 75.7074 6.18182C75.7074 6.76101 75.7969 7.25071 75.9759 7.65092C76.1574 8.04865 76.4072 8.35067 76.7254 8.557C77.0435 8.76083 77.4102 8.86275 77.8253 8.86275C78.2405 8.86275 78.6071 8.76083 78.9253 8.557C79.2435 8.35067 79.4921 8.04865 79.671 7.65092C79.8525 7.25071 79.9432 6.76101 79.9432 6.18182ZM89.1783 4.94016H87.7837C87.744 4.71147 87.6706 4.50888 87.5637 4.33239C87.4569 4.15341 87.3239 4.00178 87.1648 3.87749C87.0057 3.7532 86.8242 3.65998 86.6204 3.59783C86.419 3.5332 86.2015 3.50089 85.9679 3.50089C85.5527 3.50089 85.1848 3.60529 84.8642 3.8141C84.5435 4.02042 84.2924 4.32369 84.111 4.7239C83.9295 5.12163 83.8388 5.6076 83.8388 6.18182C83.8388 6.76598 83.9295 7.25817 84.111 7.65838C84.2949 8.05611 84.546 8.35689 84.8642 8.56072C85.1848 8.76207 85.5515 8.86275 85.9641 8.86275C86.1928 8.86275 86.4066 8.83292 86.6055 8.77326C86.8068 8.71111 86.987 8.62038 87.1461 8.50107C87.3077 8.38175 87.4432 8.23509 87.5526 8.06108C87.6644 7.88707 87.7415 7.68821 87.7837 7.46449L89.1783 7.47195C89.1261 7.83487 89.013 8.17543 88.839 8.49361C88.6674 8.81179 88.4425 9.09268 88.1641 9.33629C87.8857 9.57741 87.56 9.76634 87.1871 9.90305C86.8143 10.0373 86.4004 10.1044 85.9455 10.1044C85.2743 10.1044 84.6752 9.94904 84.1483 9.63832C83.6213 9.32759 83.2061 8.87891 82.9029 8.29226C82.5996 7.70561 82.448 7.00213 82.448 6.18182C82.448 5.35902 82.6009 4.65554 82.9066 4.07138C83.2124 3.48473 83.6287 3.03604 84.1557 2.72532C84.6827 2.41459 85.2793 2.25923 85.9455 2.25923C86.3706 2.25923 86.7658 2.31889 87.1312 2.43821C87.4966 2.55753 87.8223 2.73278 88.1081 2.96396C88.394 3.19265 88.6289 3.47354 88.8129 3.80664C88.9993 4.13725 89.1211 4.51509 89.1783 4.94016ZM96.9815 4.94016H95.587C95.5472 4.71147 95.4739 4.50888 95.367 4.33239C95.2601 4.15341 95.1271 4.00178 94.968 3.87749C94.8089 3.7532 94.6274 3.65998 94.4236 3.59783C94.2223 3.5332 94.0047 3.50089 93.7711 3.50089C93.356 3.50089 92.9881 3.60529 92.6674 3.8141C92.3467 4.02042 92.0957 4.32369 91.9142 4.7239C91.7327 5.12163 91.642 5.6076 91.642 6.18182C91.642 6.76598 91.7327 7.25817 91.9142 7.65838C92.0981 8.05611 92.3492 8.35689 92.6674 8.56072C92.9881 8.76207 93.3547 8.86275 93.7674 8.86275C93.996 8.86275 94.2098 8.83292 94.4087 8.77326C94.61 8.71111 94.7903 8.62038 94.9494 8.50107C95.1109 8.38175 95.2464 8.23509 95.3558 8.06108C95.4676 7.88707 95.5447 7.68821 95.587 7.46449L96.9815 7.47195C96.9293 7.83487 96.8162 8.17543 96.6422 8.49361C96.4707 8.81179 96.2457 9.09268 95.9673 9.33629C95.6889 9.57741 95.3632 9.76634 94.9904 9.90305C94.6175 10.0373 94.2036 10.1044 93.7487 10.1044C93.0775 10.1044 92.4785 9.94904 91.9515 9.63832C91.4245 9.32759 91.0094 8.87891 90.7061 8.29226C90.4028 7.70561 90.2512 7.00213 90.2512 6.18182C90.2512 5.35902 90.4041 4.65554 90.7098 4.07138C91.0156 3.48473 91.432 3.03604 91.9589 2.72532C92.4859 2.41459 93.0825 2.25923 93.7487 2.25923C94.1738 2.25923 94.569 2.31889 94.9344 2.43821C95.2998 2.55753 95.6255 2.73278 95.9114 2.96396C96.1972 3.19265 96.4321 3.47354 96.6161 3.80664C96.8025 4.13725 96.9243 4.51509 96.9815 4.94016ZM98.2483 2.36364H99.6205V7.56889H99.6913L103.282 2.36364H104.524V10H103.14V4.79847H103.077L99.4751 10H98.2483V2.36364ZM106.031 2.36364H107.403V7.56889H107.474L111.065 2.36364H112.306V10H110.923V4.79847H110.86L107.258 10H106.031V2.36364ZM109.909 0.394886H110.919C110.919 0.8299 110.761 1.18288 110.446 1.45383C110.133 1.7223 109.708 1.85653 109.171 1.85653C108.639 1.85653 108.215 1.7223 107.899 1.45383C107.586 1.18288 107.431 0.8299 107.433 0.394886H108.436C108.436 0.573863 108.491 0.734197 108.6 0.875887C108.712 1.01509 108.902 1.08469 109.171 1.08469C109.434 1.08469 109.622 1.01509 109.734 0.875887C109.848 0.736683 109.906 0.576349 109.909 0.394886ZM120.35 4.94016H118.956C118.916 4.71147 118.843 4.50888 118.736 4.33239C118.629 4.15341 118.496 4.00178 118.337 3.87749C118.178 3.7532 117.996 3.65998 117.792 3.59783C117.591 3.5332 117.373 3.50089 117.14 3.50089C116.725 3.50089 116.357 3.60529 116.036 3.8141C115.715 4.02042 115.464 4.32369 115.283 4.7239C115.101 5.12163 115.011 5.6076 115.011 6.18182C115.011 6.76598 115.101 7.25817 115.283 7.65838C115.467 8.05611 115.718 8.35689 116.036 8.56072C116.357 8.76207 116.723 8.86275 117.136 8.86275C117.365 8.86275 117.578 8.83292 117.777 8.77326C117.979 8.71111 118.159 8.62038 118.318 8.50107C118.48 8.38175 118.615 8.23509 118.724 8.06108C118.836 7.88707 118.913 7.68821 118.956 7.46449L120.35 7.47195C120.298 7.83487 120.185 8.17543 120.011 8.49361C119.839 8.81179 119.614 9.09268 119.336 9.33629C119.058 9.57741 118.732 9.76634 118.359 9.90305C117.986 10.0373 117.572 10.1044 117.117 10.1044C116.446 10.1044 115.847 9.94904 115.32 9.63832C114.793 9.32759 114.378 8.87891 114.075 8.29226C113.771 7.70561 113.62 7.00213 113.62 6.18182C113.62 5.35902 113.773 4.65554 114.078 4.07138C114.384 3.48473 114.801 3.03604 115.328 2.72532C115.855 2.41459 116.451 2.25923 117.117 2.25923C117.542 2.25923 117.938 2.31889 118.303 2.43821C118.669 2.55753 118.994 2.73278 119.28 2.96396C119.566 3.19265 119.801 3.47354 119.985 3.80664C120.171 4.13725 120.293 4.51509 120.35 4.94016ZM126.192 10L123.679 6.66282H123V10H121.617V2.36364H123V5.5032H123.347L126.062 2.36364H127.766L124.749 5.84624L127.896 10H126.192ZM135.249 6.18182C135.249 7.00462 135.095 7.70934 134.787 8.29599C134.481 8.88015 134.063 9.32759 133.534 9.63832C133.007 9.94904 132.409 10.1044 131.74 10.1044C131.072 10.1044 130.473 9.94904 129.943 9.63832C129.416 9.32511 128.999 8.87642 128.69 8.29226C128.385 7.70561 128.232 7.00213 128.232 6.18182C128.232 5.35902 128.385 4.65554 128.69 4.07138C128.999 3.48473 129.416 3.03604 129.943 2.72532C130.473 2.41459 131.072 2.25923 131.74 2.25923C132.409 2.25923 133.007 2.41459 133.534 2.72532C134.063 3.03604 134.481 3.48473 134.787 4.07138C135.095 4.65554 135.249 5.35902 135.249 6.18182ZM133.858 6.18182C133.858 5.60263 133.768 5.11417 133.586 4.71644C133.407 4.31623 133.159 4.0142 132.84 3.81037C132.522 3.60405 132.155 3.50089 131.74 3.50089C131.325 3.50089 130.959 3.60405 130.64 3.81037C130.322 4.0142 130.072 4.31623 129.891 4.71644C129.712 5.11417 129.622 5.60263 129.622 6.18182C129.622 6.76101 129.712 7.25071 129.891 7.65092C130.072 8.04865 130.322 8.35067 130.64 8.557C130.959 8.76083 131.325 8.86275 131.74 8.86275C132.155 8.86275 132.522 8.76083 132.84 8.557C133.159 8.35067 133.407 8.04865 133.586 7.65092C133.768 7.25071 133.858 6.76101 133.858 6.18182ZM139.969 5.62624V6.73739H136.531V5.62624H139.969ZM68.7338 22H67.2573L69.9457 14.3636H71.6534L74.3455 22H72.869L70.8294 15.9297H70.7697L68.7338 22ZM68.7823 19.0059H72.8093V20.117H68.7823V19.0059ZM77.8785 15.2138H79.4221C80.0187 15.2138 80.5482 15.3418 81.0106 15.5978C81.4729 15.8539 81.8358 16.2143 82.0993 16.6792C82.3628 17.1415 82.4946 17.6834 82.4946 18.3049C82.4946 18.9114 82.3628 19.4421 82.0993 19.897C81.8358 20.3519 81.4729 20.7061 81.0106 20.9597C80.5482 21.2108 80.0187 21.3363 79.4221 21.3363H77.8785C77.2794 21.3363 76.7474 21.212 76.2826 20.9634C75.8202 20.7124 75.4573 20.3594 75.1938 19.9045C74.9303 19.4496 74.7986 18.9176 74.7986 18.3086C74.7986 17.6871 74.9316 17.1452 75.1975 16.6829C75.4635 16.218 75.8277 15.8576 76.29 15.6016C76.7549 15.343 77.2844 15.2138 77.8785 15.2138ZM77.8785 16.3846C77.5155 16.3846 77.2011 16.4592 76.9351 16.6083C76.6716 16.755 76.4678 16.9712 76.3236 17.2571C76.1794 17.543 76.1073 17.8935 76.1073 18.3086C76.1073 18.7063 76.1794 19.0431 76.3236 19.3191C76.4703 19.595 76.6766 19.805 76.9426 19.9492C77.2085 20.0934 77.5205 20.1655 77.8785 20.1655H79.4259C79.7863 20.1655 80.097 20.0934 80.358 19.9492C80.6215 19.8026 80.8241 19.5913 80.9658 19.3153C81.11 19.0369 81.1821 18.7001 81.1821 18.3049C81.1821 17.8947 81.11 17.5467 80.9658 17.2608C80.8241 16.975 80.6215 16.7575 80.358 16.6083C80.097 16.4592 79.7863 16.3846 79.4259 16.3846H77.8785ZM79.3177 14.2294V22.3132H77.9866V14.2294H79.3177ZM83.8108 22V14.3636H86.6744C87.2611 14.3636 87.7533 14.473 88.151 14.6918C88.5512 14.9105 88.8532 15.2113 89.0571 15.5941C89.2634 15.9744 89.3666 16.407 89.3666 16.8917C89.3666 17.3814 89.2634 17.8164 89.0571 18.1967C88.8508 18.5771 88.5463 18.8766 88.1436 19.0953C87.7409 19.3116 87.2449 19.4197 86.6558 19.4197H84.7579V18.2825H86.4694C86.8124 18.2825 87.0933 18.2228 87.3121 18.1035C87.5308 17.9842 87.6924 17.8201 87.7968 17.6113C87.9037 17.4025 87.9571 17.1626 87.9571 16.8917C87.9571 16.6207 87.9037 16.3821 87.7968 16.1758C87.6924 15.9695 87.5296 15.8091 87.3083 15.6948C87.0896 15.5779 86.8074 15.5195 86.4619 15.5195H85.1942V22H83.8108ZM90.5681 14.3636H91.9403V19.5689H92.0111L95.6019 14.3636H96.8435V22H95.4602V16.7985H95.3968L91.7949 22H90.5681V14.3636ZM102.926 22L100.413 18.6628H99.7342V22H98.3509V14.3636H99.7342V17.5032H100.081L102.795 14.3636H104.499L101.483 17.8462L104.63 22H102.926ZM106.55 22H105.074L107.762 14.3636H109.47L112.162 22H110.685L108.646 15.9297H108.586L106.55 22ZM106.599 19.0059H110.626V20.117H106.599V19.0059ZM113.168 22V14.3636H114.551V17.5964H118.09V14.3636H119.477V22H118.09V18.756H114.551V22H113.168ZM127.518 16.9402H126.123C126.083 16.7115 126.01 16.5089 125.903 16.3324C125.796 16.1534 125.663 16.0018 125.504 15.8775C125.345 15.7532 125.164 15.66 124.96 15.5978C124.758 15.5332 124.541 15.5009 124.307 15.5009C123.892 15.5009 123.524 15.6053 123.204 15.8141C122.883 16.0204 122.632 16.3237 122.45 16.7239C122.269 17.1216 122.178 17.6076 122.178 18.1818C122.178 18.766 122.269 19.2582 122.45 19.6584C122.634 20.0561 122.885 20.3569 123.204 20.5607C123.524 20.7621 123.891 20.8627 124.303 20.8627C124.532 20.8627 124.746 20.8329 124.945 20.7733C125.146 20.7111 125.326 20.6204 125.485 20.5011C125.647 20.3817 125.783 20.2351 125.892 20.0611C126.004 19.8871 126.081 19.6882 126.123 19.4645L127.518 19.4719C127.465 19.8349 127.352 20.1754 127.178 20.4936C127.007 20.8118 126.782 21.0927 126.503 21.3363C126.225 21.5774 125.899 21.7663 125.527 21.9031C125.154 22.0373 124.74 22.1044 124.285 22.1044C123.614 22.1044 123.015 21.949 122.488 21.6383C121.961 21.3276 121.545 20.8789 121.242 20.2923C120.939 19.7056 120.787 19.0021 120.787 18.1818C120.787 17.359 120.94 16.6555 121.246 16.0714C121.552 15.4847 121.968 15.036 122.495 14.7253C123.022 14.4146 123.619 14.2592 124.285 14.2592C124.71 14.2592 125.105 14.3189 125.471 14.4382C125.836 14.5575 126.162 14.7328 126.447 14.964C126.733 15.1926 126.968 15.4735 127.152 15.8066C127.339 16.1373 127.46 16.5151 127.518 16.9402ZM133.36 22L130.846 18.6628H130.168V22H128.784V14.3636H130.168V17.5032H130.515L133.229 14.3636H134.933L131.917 17.8462L135.064 22H133.36ZM136.003 14.3636H137.375V19.5689H137.446L141.037 14.3636H142.279V22H140.895V16.7985H140.832L137.23 22H136.003V14.3636ZM143.786 14.3636H145.158V19.5689H145.229L148.82 14.3636H150.061V22H148.678V16.7985H148.615L145.013 22H143.786V14.3636ZM147.664 12.3949H148.674C148.674 12.8299 148.516 13.1829 148.201 13.4538C147.887 13.7223 147.462 13.8565 146.925 13.8565C146.394 13.8565 145.97 13.7223 145.654 13.4538C145.341 13.1829 145.185 12.8299 145.188 12.3949H146.191C146.191 12.5739 146.246 12.7342 146.355 12.8759C146.467 13.0151 146.657 13.0847 146.925 13.0847C147.189 13.0847 147.377 13.0151 147.489 12.8759C147.603 12.7367 147.661 12.5763 147.664 12.3949ZM70.6392 27.2138H72.1829C72.7795 27.2138 73.3089 27.3418 73.7713 27.5978C74.2337 27.8539 74.5966 28.2143 74.8601 28.6792C75.1236 29.1415 75.2553 29.6834 75.2553 30.3049C75.2553 30.9114 75.1236 31.4421 74.8601 31.897C74.5966 32.3519 74.2337 32.7061 73.7713 32.9597C73.3089 33.2108 72.7795 33.3363 72.1829 33.3363H70.6392C70.0401 33.3363 69.5082 33.212 69.0433 32.9634C68.581 32.7124 68.218 32.3594 67.9545 31.9045C67.6911 31.4496 67.5593 30.9176 67.5593 30.3086C67.5593 29.6871 67.6923 29.1452 67.9583 28.6829C68.2243 28.218 68.5884 27.8576 69.0508 27.6016C69.5156 27.343 70.0451 27.2138 70.6392 27.2138ZM70.6392 28.3846C70.2763 28.3846 69.9618 28.4592 69.6958 28.6083C69.4324 28.755 69.2285 28.9712 69.0843 29.2571C68.9402 29.543 68.8681 29.8935 68.8681 30.3086C68.8681 30.7063 68.9402 31.0431 69.0843 31.3191C69.231 31.595 69.4373 31.805 69.7033 31.9492C69.9693 32.0934 70.2813 32.1655 70.6392 32.1655H72.1866C72.5471 32.1655 72.8578 32.0934 73.1188 31.9492C73.3823 31.8026 73.5849 31.5913 73.7266 31.3153C73.8707 31.0369 73.9428 30.7001 73.9428 30.3049C73.9428 29.8947 73.8707 29.5467 73.7266 29.2608C73.5849 28.975 73.3823 28.7575 73.1188 28.6083C72.8578 28.4592 72.5471 28.3846 72.1866 28.3846H70.6392ZM72.0785 26.2294V34.3132H70.7473V26.2294H72.0785ZM83.3951 30.1818C83.3951 31.0046 83.2409 31.7093 82.9327 32.296C82.627 32.8801 82.2093 33.3276 81.6799 33.6383C81.1529 33.949 80.555 34.1044 79.8864 34.1044C79.2177 34.1044 78.6186 33.949 78.0891 33.6383C77.5621 33.3251 77.1445 32.8764 76.8363 32.2923C76.5305 31.7056 76.3777 31.0021 76.3777 30.1818C76.3777 29.359 76.5305 28.6555 76.8363 28.0714C77.1445 27.4847 77.5621 27.036 78.0891 26.7253C78.6186 26.4146 79.2177 26.2592 79.8864 26.2592C80.555 26.2592 81.1529 26.4146 81.6799 26.7253C82.2093 27.036 82.627 27.4847 82.9327 28.0714C83.2409 28.6555 83.3951 29.359 83.3951 30.1818ZM82.0043 30.1818C82.0043 29.6026 81.9135 29.1142 81.7321 28.7164C81.5531 28.3162 81.3045 28.0142 80.9863 27.8104C80.6681 27.604 80.3015 27.5009 79.8864 27.5009C79.4712 27.5009 79.1046 27.604 78.7864 27.8104C78.4682 28.0142 78.2184 28.3162 78.0369 28.7164C77.858 29.1142 77.7685 29.6026 77.7685 30.1818C77.7685 30.761 77.858 31.2507 78.0369 31.6509C78.2184 32.0487 78.4682 32.3507 78.7864 32.557C79.1046 32.7608 79.4712 32.8627 79.8864 32.8627C80.3015 32.8627 80.6681 32.7608 80.9863 32.557C81.3045 32.3507 81.5531 32.0487 81.7321 31.6509C81.9135 31.2507 82.0043 30.761 82.0043 30.1818ZM84.7029 34V26.3636H87.5665C88.1532 26.3636 88.6454 26.473 89.0431 26.6918C89.4433 26.9105 89.7453 27.2113 89.9492 27.5941C90.1555 27.9744 90.2587 28.407 90.2587 28.8917C90.2587 29.3814 90.1555 29.8164 89.9492 30.1967C89.7429 30.5771 89.4383 30.8766 89.0356 31.0953C88.6329 31.3116 88.137 31.4197 87.5479 31.4197H85.65V30.2825H87.3615C87.7045 30.2825 87.9854 30.2228 88.2041 30.1035C88.4229 29.9842 88.5845 29.8201 88.6889 29.6113C88.7958 29.4025 88.8492 29.1626 88.8492 28.8917C88.8492 28.6207 88.7958 28.3821 88.6889 28.1758C88.5845 27.9695 88.4217 27.8091 88.2004 27.6948C87.9817 27.5779 87.6995 27.5195 87.354 27.5195H86.0862V34H84.7029ZM92.1426 34.1044V32.9411H92.5788C92.7752 32.9411 92.9368 32.9125 93.0636 32.8553C93.1903 32.7981 93.2923 32.7161 93.3693 32.6092C93.4489 32.5023 93.5147 32.378 93.5669 32.2363L93.6676 31.979L90.9382 26.3636H92.3849L94.2866 30.4503L95.9309 26.3636H97.3553L94.7228 32.5906C94.601 32.859 94.4606 33.1088 94.3015 33.34C94.1424 33.5687 93.9348 33.7539 93.6788 33.8956C93.4252 34.0348 93.0946 34.1044 92.687 34.1044H92.1426ZM98.3406 26.3636H100.033L102.3 31.897H102.39L104.657 26.3636H106.35V34H105.022V28.7537H104.952L102.841 33.9776H101.849L99.7389 28.7425H99.668V34H98.3406V26.3636ZM111.268 29.6262V30.7374H107.83V29.6262H111.268ZM117.322 34L114.809 30.6628H114.131V34H112.747V26.3636H114.131V29.5032H114.477L117.192 26.3636H118.896L115.879 29.8462L119.026 34H117.322ZM126.379 30.1818C126.379 31.0046 126.225 31.7093 125.917 32.296C125.611 32.8801 125.194 33.3276 124.664 33.6383C124.137 33.949 123.539 34.1044 122.871 34.1044C122.202 34.1044 121.603 33.949 121.074 33.6383C120.547 33.3251 120.129 32.8764 119.821 32.2923C119.515 31.7056 119.362 31.0021 119.362 30.1818C119.362 29.359 119.515 28.6555 119.821 28.0714C120.129 27.4847 120.547 27.036 121.074 26.7253C121.603 26.4146 122.202 26.2592 122.871 26.2592C123.539 26.2592 124.137 26.4146 124.664 26.7253C125.194 27.036 125.611 27.4847 125.917 28.0714C126.225 28.6555 126.379 29.359 126.379 30.1818ZM124.989 30.1818C124.989 29.6026 124.898 29.1142 124.716 28.7164C124.537 28.3162 124.289 28.0142 123.971 27.8104C123.653 27.604 123.286 27.5009 122.871 27.5009C122.456 27.5009 122.089 27.604 121.771 27.8104C121.453 28.0142 121.203 28.3162 121.021 28.7164C120.842 29.1142 120.753 29.6026 120.753 30.1818C120.753 30.761 120.842 31.2507 121.021 31.6509C121.203 32.0487 121.453 32.3507 121.771 32.557C122.089 32.7608 122.456 32.8627 122.871 32.8627C123.286 32.8627 123.653 32.7608 123.971 32.557C124.289 32.3507 124.537 32.0487 124.716 31.6509C124.898 31.2507 124.989 30.761 124.989 30.1818ZM127.687 34V26.3636H129.071V29.5964H132.609V26.3636H133.996V34H132.609V30.756H129.071V34H127.687ZM140.076 34L137.563 30.6628H136.884V34H135.501V26.3636H136.884V29.5032H137.231L139.945 26.3636H141.649L138.633 29.8462L141.78 34H140.076ZM143.402 34.1044V32.9411H143.838C144.034 32.9411 144.196 32.9125 144.323 32.8553C144.45 32.7981 144.552 32.7161 144.629 32.6092C144.708 32.5023 144.774 32.378 144.826 32.2363L144.927 31.979L142.197 26.3636H143.644L145.546 30.4503L147.19 26.3636H148.615L145.982 32.5906C145.86 32.859 145.72 33.1088 145.561 33.34C145.402 33.5687 145.194 33.7539 144.938 33.8956C144.685 34.0348 144.354 34.1044 143.946 34.1044H143.402ZM149.6 34V26.3636H152.464C153.05 26.3636 153.542 26.473 153.94 26.6918C154.34 26.9105 154.642 27.2113 154.846 27.5941C155.052 27.9744 155.156 28.407 155.156 28.8917C155.156 29.3814 155.052 29.8164 154.846 30.1967C154.64 30.5771 154.335 30.8766 153.933 31.0953C153.53 31.3116 153.034 31.4197 152.445 31.4197H150.547V30.2825H152.258C152.601 30.2825 152.882 30.2228 153.101 30.1035C153.32 29.9842 153.481 29.8201 153.586 29.6113C153.693 29.4025 153.746 29.1626 153.746 28.8917C153.746 28.6207 153.693 28.3821 153.586 28.1758C153.481 27.9695 153.319 27.8091 153.097 27.6948C152.879 27.5779 152.597 27.5195 152.251 27.5195H150.983V34H149.6ZM162.894 28.9402H161.499C161.459 28.7115 161.386 28.5089 161.279 28.3324C161.172 28.1534 161.039 28.0018 160.88 27.8775C160.721 27.7532 160.54 27.66 160.336 27.5978C160.134 27.5332 159.917 27.5009 159.683 27.5009C159.268 27.5009 158.9 27.6053 158.58 27.8141C158.259 28.0204 158.008 28.3237 157.826 28.7239C157.645 29.1216 157.554 29.6076 157.554 30.1818C157.554 30.766 157.645 31.2582 157.826 31.6584C158.01 32.0561 158.261 32.3569 158.58 32.5607C158.9 32.7621 159.267 32.8627 159.679 32.8627C159.908 32.8627 160.122 32.8329 160.321 32.7733C160.522 32.7111 160.702 32.6204 160.861 32.5011C161.023 32.3817 161.159 32.2351 161.268 32.0611C161.38 31.8871 161.457 31.6882 161.499 31.4645L162.894 31.4719C162.841 31.8349 162.728 32.1754 162.554 32.4936C162.383 32.8118 162.158 33.0927 161.879 33.3363C161.601 33.5774 161.275 33.7663 160.902 33.9031C160.53 34.0373 160.116 34.1044 159.661 34.1044C158.99 34.1044 158.391 33.949 157.864 33.6383C157.337 33.3276 156.921 32.8789 156.618 32.2923C156.315 31.7056 156.163 31.0021 156.163 30.1818C156.163 29.359 156.316 28.6555 156.622 28.0714C156.928 27.4847 157.344 27.036 157.871 26.7253C158.398 26.4146 158.995 26.2592 159.661 26.2592C160.086 26.2592 160.481 26.3189 160.847 26.4382C161.212 26.5575 161.538 26.7328 161.823 26.964C162.109 27.1926 162.344 27.4735 162.528 27.8066C162.715 28.1373 162.836 28.5151 162.894 28.9402Z" fill="#242424"/>
</g>
<defs>
<clipPath id="clip0_6000_583">
<rect width="164" height="35" fill="white"/>
</clipPath>
</defs>
</svg>
