<svg width="276" height="34" viewBox="0 0 276 34" fill="none" xmlns="http://www.w3.org/2000/svg">
<g clip-path="url(#clip0_632_504)">
<rect width="276" height="34" fill="white"/>
<path d="M17.1897 16.0225H0V0.459839H8.41801L17.1897 16.0225Z" fill="#0039A6"/>
<path d="M26.7395 33.0001H0V17.4374H17.9678L26.7395 33.0001Z" fill="#D52B1E"/>
<path d="M65.9998 33.0001H29.1445L38.1992 17.4374H57.0159L65.9998 33.0001Z" fill="#FFD53D"/>
<path d="M56.1668 16.0225H39.0479L47.6073 1.16724L56.1668 16.0225Z" fill="#369D62"/>
<path d="M36.5722 17.4374L31.9034 25.4309L27.942 32.2927L19.5947 17.4374H36.5722Z" fill="#C5C5C5"/>
<path d="M46.3342 0.459839L37.7748 15.3151L29.1445 0.459839H46.3342Z" fill="#C5C5C5"/>
<path d="M26.7395 0.459839L18.3922 15.3151L10.0449 0.459839H26.7395Z" fill="#C5C5C5"/>
<path d="M67.0043 16V5.81818H70.8224C71.6046 5.81818 72.2609 5.96401 72.7912 6.25568C73.3248 6.54735 73.7275 6.94839 73.9993 7.45881C74.2744 7.96591 74.4119 8.54261 74.4119 9.18892C74.4119 9.84186 74.2744 10.4219 73.9993 10.929C73.7242 11.4361 73.3182 11.8355 72.7812 12.1271C72.2443 12.4155 71.5831 12.5597 70.7976 12.5597H68.267V11.0433H70.549C71.0064 11.0433 71.3809 10.9638 71.6726 10.8047C71.9643 10.6456 72.1797 10.4268 72.3189 10.1484C72.4614 9.87003 72.5327 9.55019 72.5327 9.18892C72.5327 8.82765 72.4614 8.50947 72.3189 8.23438C72.1797 7.95928 71.9626 7.7455 71.6676 7.59304C71.3759 7.43726 70.9998 7.35938 70.5391 7.35938H68.8487V16H67.0043ZM85.112 10.9091C85.112 12.0062 84.9065 12.9458 84.4956 13.728C84.0879 14.5069 83.5311 15.1035 82.8251 15.5178C82.1225 15.9321 81.3253 16.1392 80.4338 16.1392C79.5422 16.1392 78.7434 15.9321 78.0375 15.5178C77.3348 15.1001 76.778 14.5019 76.367 13.723C75.9593 12.9408 75.7555 12.0028 75.7555 10.9091C75.7555 9.81203 75.9593 8.87405 76.367 8.09517C76.778 7.31297 77.3348 6.71473 78.0375 6.30043C78.7434 5.88613 79.5422 5.67898 80.4338 5.67898C81.3253 5.67898 82.1225 5.88613 82.8251 6.30043C83.5311 6.71473 84.0879 7.31297 84.4956 8.09517C84.9065 8.87405 85.112 9.81203 85.112 10.9091ZM83.2576 10.9091C83.2576 10.1368 83.1367 9.48556 82.8947 8.95526C82.6561 8.42164 82.3246 8.01894 81.9004 7.74716C81.4761 7.47206 80.9873 7.33452 80.4338 7.33452C79.8803 7.33452 79.3914 7.47206 78.9672 7.74716C78.5429 8.01894 78.2098 8.42164 77.9679 8.95526C77.7292 9.48556 77.6099 10.1368 77.6099 10.9091C77.6099 11.6813 77.7292 12.3343 77.9679 12.8679C78.2098 13.3982 78.5429 13.8009 78.9672 14.076C79.3914 14.3478 79.8803 14.4837 80.4338 14.4837C80.9873 14.4837 81.4761 14.3478 81.9004 14.076C82.3246 13.8009 82.6561 13.3982 82.8947 12.8679C83.1367 12.3343 83.2576 11.6813 83.2576 10.9091ZM95.571 9.25355H93.7116C93.6586 8.94863 93.5608 8.6785 93.4183 8.44318C93.2758 8.20455 93.0985 8.00237 92.8864 7.83665C92.6742 7.67093 92.4323 7.54664 92.1605 7.46378C91.892 7.3776 91.602 7.33452 91.2905 7.33452C90.737 7.33452 90.2464 7.47372 89.8189 7.75213C89.3913 8.02722 89.0566 8.43158 88.8146 8.9652C88.5727 9.4955 88.4517 10.1435 88.4517 10.9091C88.4517 11.688 88.5727 12.3442 88.8146 12.8778C89.0599 13.4081 89.3946 13.8092 89.8189 14.081C90.2464 14.3494 90.7353 14.4837 91.2855 14.4837C91.5904 14.4837 91.8755 14.4439 92.1406 14.3643C92.4091 14.2815 92.6494 14.1605 92.8615 14.0014C93.0769 13.8423 93.2576 13.6468 93.4034 13.4148C93.5526 13.1828 93.6553 12.9176 93.7116 12.6193L95.571 12.6293C95.5014 13.1132 95.3506 13.5672 95.1186 13.9915C94.8899 14.4157 94.59 14.7902 94.2188 15.1151C93.8475 15.4366 93.4134 15.6884 92.9162 15.8707C92.419 16.0497 91.8672 16.1392 91.2607 16.1392C90.3658 16.1392 89.567 15.9321 88.8643 15.5178C88.1617 15.1035 87.6082 14.5052 87.2038 13.723C86.7995 12.9408 86.5973 12.0028 86.5973 10.9091C86.5973 9.81203 86.8011 8.87405 87.2088 8.09517C87.6165 7.31297 88.1716 6.71473 88.8743 6.30043C89.5769 5.88613 90.3724 5.67898 91.2607 5.67898C91.8274 5.67898 92.3544 5.75852 92.8416 5.91761C93.3288 6.0767 93.763 6.31037 94.1442 6.61861C94.5253 6.92353 94.8385 7.29806 95.0838 7.74219C95.3324 8.183 95.4948 8.68679 95.571 9.25355ZM105.975 9.25355H104.116C104.063 8.94863 103.965 8.6785 103.823 8.44318C103.68 8.20455 103.503 8.00237 103.291 7.83665C103.079 7.67093 102.837 7.54664 102.565 7.46378C102.296 7.3776 102.006 7.33452 101.695 7.33452C101.141 7.33452 100.651 7.47372 100.223 7.75213C99.7956 8.02722 99.4609 8.43158 99.2189 8.9652C98.977 9.4955 98.856 10.1435 98.856 10.9091C98.856 11.688 98.977 12.3442 99.2189 12.8778C99.4642 13.4081 99.7989 13.8092 100.223 14.081C100.651 14.3494 101.14 14.4837 101.69 14.4837C101.995 14.4837 102.28 14.4439 102.545 14.3643C102.813 14.2815 103.054 14.1605 103.266 14.0014C103.481 13.8423 103.662 13.6468 103.808 13.4148C103.957 13.1828 104.06 12.9176 104.116 12.6193L105.975 12.6293C105.906 13.1132 105.755 13.5672 105.523 13.9915C105.294 14.4157 104.994 14.7902 104.623 15.1151C104.252 15.4366 103.818 15.6884 103.32 15.8707C102.823 16.0497 102.271 16.1392 101.665 16.1392C100.77 16.1392 99.9713 15.9321 99.2686 15.5178C98.566 15.1035 98.0125 14.5052 97.6081 13.723C97.2038 12.9408 97.0016 12.0028 97.0016 10.9091C97.0016 9.81203 97.2054 8.87405 97.6131 8.09517C98.0208 7.31297 98.5759 6.71473 99.2786 6.30043C99.9812 5.88613 100.777 5.67898 101.665 5.67898C102.232 5.67898 102.759 5.75852 103.246 5.91761C103.733 6.0767 104.167 6.31037 104.548 6.61861C104.93 6.92353 105.243 7.29806 105.488 7.74219C105.737 8.183 105.899 8.68679 105.975 9.25355ZM107.664 5.81818H109.494V12.7585H109.588L114.376 5.81818H116.032V16H114.187V9.06463H114.103L109.3 16H107.664V5.81818ZM118.041 5.81818H119.871V12.7585H119.965L124.753 5.81818H126.409V16H124.564V9.06463H124.48L119.677 16H118.041V5.81818ZM123.212 3.19318H124.559C124.559 3.7732 124.349 4.24384 123.928 4.60511C123.51 4.96307 122.943 5.14205 122.227 5.14205C121.518 5.14205 120.953 4.96307 120.532 4.60511C120.115 4.24384 119.907 3.7732 119.911 3.19318H121.248C121.248 3.43182 121.321 3.6456 121.467 3.83452C121.616 4.02012 121.869 4.11293 122.227 4.11293C122.579 4.11293 122.829 4.02012 122.978 3.83452C123.131 3.64891 123.209 3.43513 123.212 3.19318ZM137.134 9.25355H135.274C135.221 8.94863 135.123 8.6785 134.981 8.44318C134.838 8.20455 134.661 8.00237 134.449 7.83665C134.237 7.67093 133.995 7.54664 133.723 7.46378C133.455 7.3776 133.165 7.33452 132.853 7.33452C132.299 7.33452 131.809 7.47372 131.381 7.75213C130.954 8.02722 130.619 8.43158 130.377 8.9652C130.135 9.4955 130.014 10.1435 130.014 10.9091C130.014 11.688 130.135 12.3442 130.377 12.8778C130.622 13.4081 130.957 13.8092 131.381 14.081C131.809 14.3494 132.298 14.4837 132.848 14.4837C133.153 14.4837 133.438 14.4439 133.703 14.3643C133.972 14.2815 134.212 14.1605 134.424 14.0014C134.639 13.8423 134.82 13.6468 134.966 13.4148C135.115 13.1828 135.218 12.9176 135.274 12.6193L137.134 12.6293C137.064 13.1132 136.913 13.5672 136.681 13.9915C136.452 14.4157 136.152 14.7902 135.781 15.1151C135.41 15.4366 134.976 15.6884 134.479 15.8707C133.982 16.0497 133.43 16.1392 132.823 16.1392C131.928 16.1392 131.129 15.9321 130.427 15.5178C129.724 15.1035 129.171 14.5052 128.766 13.723C128.362 12.9408 128.16 12.0028 128.16 10.9091C128.16 9.81203 128.364 8.87405 128.771 8.09517C129.179 7.31297 129.734 6.71473 130.437 6.30043C131.139 5.88613 131.935 5.67898 132.823 5.67898C133.39 5.67898 133.917 5.75852 134.404 5.91761C134.891 6.0767 135.326 6.31037 135.707 6.61861C136.088 6.92353 136.401 7.29806 136.646 7.74219C136.895 8.183 137.057 8.68679 137.134 9.25355ZM144.923 16L141.572 11.5504H140.667V16H138.823V5.81818H140.667V10.0043H141.129L144.749 5.81818H147.021L142.999 10.4616L147.195 16H144.923ZM156.999 10.9091C156.999 12.0062 156.793 12.9458 156.382 13.728C155.975 14.5069 155.418 15.1035 154.712 15.5178C154.009 15.9321 153.212 16.1392 152.32 16.1392C151.429 16.1392 150.63 15.9321 149.924 15.5178C149.222 15.1001 148.665 14.5019 148.254 13.723C147.846 12.9408 147.642 12.0028 147.642 10.9091C147.642 9.81203 147.846 8.87405 148.254 8.09517C148.665 7.31297 149.222 6.71473 149.924 6.30043C150.63 5.88613 151.429 5.67898 152.32 5.67898C153.212 5.67898 154.009 5.88613 154.712 6.30043C155.418 6.71473 155.975 7.31297 156.382 8.09517C156.793 8.87405 156.999 9.81203 156.999 10.9091ZM155.144 10.9091C155.144 10.1368 155.023 9.48556 154.781 8.95526C154.543 8.42164 154.211 8.01894 153.787 7.74716C153.363 7.47206 152.874 7.33452 152.32 7.33452C151.767 7.33452 151.278 7.47206 150.854 7.74716C150.43 8.01894 150.097 8.42164 149.855 8.95526C149.616 9.48556 149.497 10.1368 149.497 10.9091C149.497 11.6813 149.616 12.3343 149.855 12.8679C150.097 13.3982 150.43 13.8009 150.854 14.076C151.278 14.3478 151.767 14.4837 152.32 14.4837C152.874 14.4837 153.363 14.3478 153.787 14.076C154.211 13.8009 154.543 13.3982 154.781 12.8679C155.023 12.3343 155.144 11.6813 155.144 10.9091ZM163.292 10.1683V11.6499H158.708V10.1683H163.292ZM166.572 16H164.603L168.187 5.81818H170.464L174.054 16H172.085L169.366 7.90625H169.286L166.572 16ZM166.636 12.0078H172.006V13.4893H166.636V12.0078ZM178.764 6.9517H180.823C181.618 6.9517 182.324 7.1224 182.941 7.46378C183.557 7.80516 184.041 8.28575 184.392 8.90554C184.744 9.52202 184.919 10.2446 184.919 11.0732C184.919 11.8819 184.744 12.5895 184.392 13.196C184.041 13.8026 183.557 14.2749 182.941 14.6129C182.324 14.9477 181.618 15.1151 180.823 15.1151H178.764C177.966 15.1151 177.256 14.9493 176.637 14.6179C176.02 14.2831 175.536 13.8125 175.185 13.206C174.834 12.5994 174.658 11.8902 174.658 11.0781C174.658 10.2495 174.835 9.52699 175.19 8.91051C175.544 8.29072 176.03 7.81013 176.646 7.46875C177.266 7.12405 177.972 6.9517 178.764 6.9517ZM178.764 8.51278C178.28 8.51278 177.861 8.61222 177.507 8.81108C177.155 9.00663 176.883 9.29498 176.691 9.67614C176.499 10.0573 176.403 10.5246 176.403 11.0781C176.403 11.6084 176.499 12.0575 176.691 12.4254C176.887 12.7933 177.162 13.0734 177.517 13.2656C177.871 13.4579 178.287 13.554 178.764 13.554H180.828C181.308 13.554 181.722 13.4579 182.07 13.2656C182.422 13.0701 182.692 12.7884 182.881 12.4205C183.073 12.0492 183.169 11.6001 183.169 11.0732C183.169 10.5263 183.073 10.0623 182.881 9.68111C182.692 9.29995 182.422 9.00994 182.07 8.81108C181.722 8.61222 181.308 8.51278 180.828 8.51278H178.764ZM180.683 5.6392V16.4176H178.909V5.6392H180.683ZM186.674 16V5.81818H190.492C191.275 5.81818 191.931 5.96401 192.461 6.25568C192.995 6.54735 193.397 6.94839 193.669 7.45881C193.944 7.96591 194.082 8.54261 194.082 9.18892C194.082 9.84186 193.944 10.4219 193.669 10.929C193.394 11.4361 192.988 11.8355 192.451 12.1271C191.914 12.4155 191.253 12.5597 190.468 12.5597H187.937V11.0433H190.219C190.676 11.0433 191.051 10.9638 191.343 10.8047C191.634 10.6456 191.85 10.4268 191.989 10.1484C192.131 9.87003 192.203 9.55019 192.203 9.18892C192.203 8.82765 192.131 8.50947 191.989 8.23438C191.85 7.95928 191.633 7.7455 191.338 7.59304C191.046 7.43726 190.67 7.35938 190.209 7.35938H188.519V16H186.674ZM195.684 5.81818H197.513V12.7585H197.608L202.396 5.81818H204.051V16H202.207V9.06463H202.122L197.32 16H195.684V5.81818ZM212.161 16L208.81 11.5504H207.905V16H206.061V5.81818H207.905V10.0043H208.368L211.987 5.81818H214.259L210.237 10.4616L214.433 16H212.161ZM216.993 16H215.025L218.609 5.81818H220.886L224.476 16H222.507L219.787 7.90625H219.708L216.993 16ZM217.058 12.0078H222.427V13.4893H217.058V12.0078ZM225.817 16V5.81818H227.661V10.1286H232.379V5.81818H234.229V16H232.379V11.6747H227.661V16H225.817ZM244.95 9.25355H243.091C243.038 8.94863 242.94 8.6785 242.797 8.44318C242.655 8.20455 242.477 8.00237 242.265 7.83665C242.053 7.67093 241.811 7.54664 241.539 7.46378C241.271 7.3776 240.981 7.33452 240.669 7.33452C240.116 7.33452 239.625 7.47372 239.198 7.75213C238.77 8.02722 238.435 8.43158 238.194 8.9652C237.952 9.4955 237.831 10.1435 237.831 10.9091C237.831 11.688 237.952 12.3442 238.194 12.8778C238.439 13.4081 238.774 13.8092 239.198 14.081C239.625 14.3494 240.114 14.4837 240.664 14.4837C240.969 14.4837 241.254 14.4439 241.52 14.3643C241.788 14.2815 242.028 14.1605 242.24 14.0014C242.456 13.8423 242.636 13.6468 242.782 13.4148C242.931 13.1828 243.034 12.9176 243.091 12.6193L244.95 12.6293C244.88 13.1132 244.73 13.5672 244.498 13.9915C244.269 14.4157 243.969 14.7902 243.598 15.1151C243.226 15.4366 242.792 15.6884 242.295 15.8707C241.798 16.0497 241.246 16.1392 240.64 16.1392C239.745 16.1392 238.946 15.9321 238.243 15.5178C237.541 15.1035 236.987 14.5052 236.583 13.723C236.178 12.9408 235.976 12.0028 235.976 10.9091C235.976 9.81203 236.18 8.87405 236.588 8.09517C236.995 7.31297 237.551 6.71473 238.253 6.30043C238.956 5.88613 239.751 5.67898 240.64 5.67898C241.206 5.67898 241.733 5.75852 242.221 5.91761C242.708 6.0767 243.142 6.31037 243.523 6.61861C243.904 6.92353 244.217 7.29806 244.463 7.74219C244.711 8.183 244.874 8.68679 244.95 9.25355ZM252.739 16L249.388 11.5504H248.483V16H246.639V5.81818H248.483V10.0043H248.946L252.565 5.81818H254.837L250.815 10.4616L255.011 16H252.739ZM256.264 5.81818H258.094V12.7585H258.188L262.976 5.81818H264.631V16H262.787V9.06463H262.702L257.9 16H256.264V5.81818ZM266.641 5.81818H268.471V12.7585H268.565L273.353 5.81818H275.008V16H273.164V9.06463H273.079L268.277 16H266.641V5.81818ZM271.811 3.19318H273.159C273.159 3.7732 272.948 4.24384 272.527 4.60511C272.11 4.96307 271.543 5.14205 270.827 5.14205C270.118 5.14205 269.553 4.96307 269.132 4.60511C268.714 4.24384 268.507 3.7732 268.51 3.19318H269.848C269.848 3.43182 269.921 3.6456 270.066 3.83452C270.216 4.02012 270.469 4.11293 270.827 4.11293C271.178 4.11293 271.429 4.02012 271.578 3.83452C271.73 3.64891 271.808 3.43513 271.811 3.19318ZM70.8523 21.9517H72.9105C73.706 21.9517 74.4119 22.1224 75.0284 22.4638C75.6449 22.8052 76.1288 23.2857 76.4801 23.9055C76.8314 24.522 77.0071 25.2446 77.0071 26.0732C77.0071 26.8819 76.8314 27.5895 76.4801 28.196C76.1288 28.8026 75.6449 29.2749 75.0284 29.6129C74.4119 29.9477 73.706 30.1151 72.9105 30.1151H70.8523C70.0535 30.1151 69.3442 29.9493 68.7244 29.6179C68.108 29.2831 67.6241 28.8125 67.2727 28.206C66.9214 27.5994 66.7457 26.8902 66.7457 26.0781C66.7457 25.2495 66.9231 24.527 67.2777 23.9105C67.6323 23.2907 68.1179 22.8101 68.7344 22.4688C69.3542 22.1241 70.0601 21.9517 70.8523 21.9517ZM70.8523 23.5128C70.3684 23.5128 69.9491 23.6122 69.5945 23.8111C69.2431 24.0066 68.9714 24.295 68.7791 24.6761C68.5869 25.0573 68.4908 25.5246 68.4908 26.0781C68.4908 26.6084 68.5869 27.0575 68.7791 27.4254C68.9747 27.7933 69.2498 28.0734 69.6044 28.2656C69.959 28.4579 70.375 28.554 70.8523 28.554H72.9155C73.3961 28.554 73.8104 28.4579 74.1584 28.2656C74.5097 28.0701 74.7798 27.7884 74.9688 27.4205C75.161 27.0492 75.2571 26.6001 75.2571 26.0732C75.2571 25.5263 75.161 25.0623 74.9688 24.6811C74.7798 24.3 74.5097 24.0099 74.1584 23.8111C73.8104 23.6122 73.3961 23.5128 72.9155 23.5128H70.8523ZM72.7713 20.6392V31.4176H70.9964V20.6392H72.7713ZM87.8601 25.9091C87.8601 27.0062 87.6546 27.9458 87.2436 28.728C86.8359 29.5069 86.2791 30.1035 85.5732 30.5178C84.8705 30.9321 84.0734 31.1392 83.1818 31.1392C82.2902 31.1392 81.4915 30.9321 80.7855 30.5178C80.0829 30.1001 79.526 29.5019 79.1151 28.723C78.7074 27.9408 78.5036 27.0028 78.5036 25.9091C78.5036 24.812 78.7074 23.8741 79.1151 23.0952C79.526 22.313 80.0829 21.7147 80.7855 21.3004C81.4915 20.8861 82.2902 20.679 83.1818 20.679C84.0734 20.679 84.8705 20.8861 85.5732 21.3004C86.2791 21.7147 86.8359 22.313 87.2436 23.0952C87.6546 23.8741 87.8601 24.812 87.8601 25.9091ZM86.0057 25.9091C86.0057 25.1368 85.8847 24.4856 85.6428 23.9553C85.4041 23.4216 85.0727 23.0189 84.6484 22.7472C84.2242 22.4721 83.7353 22.3345 83.1818 22.3345C82.6283 22.3345 82.1394 22.4721 81.7152 22.7472C81.291 23.0189 80.9579 23.4216 80.7159 23.9553C80.4773 24.4856 80.358 25.1368 80.358 25.9091C80.358 26.6813 80.4773 27.3343 80.7159 27.8679C80.9579 28.3982 81.291 28.8009 81.7152 29.076C82.1394 29.3478 82.6283 29.4837 83.1818 29.4837C83.7353 29.4837 84.2242 29.3478 84.6484 29.076C85.0727 28.8009 85.4041 28.3982 85.6428 27.8679C85.8847 27.3343 86.0057 26.6813 86.0057 25.9091ZM89.6039 31V20.8182H93.4221C94.2042 20.8182 94.8605 20.964 95.3908 21.2557C95.9244 21.5473 96.3271 21.9484 96.5989 22.4588C96.874 22.9659 97.0115 23.5426 97.0115 24.1889C97.0115 24.8419 96.874 25.4219 96.5989 25.929C96.3238 26.4361 95.9178 26.8355 95.3809 27.1271C94.8439 27.4155 94.1827 27.5597 93.3972 27.5597H90.8667V26.0433H93.1486C93.606 26.0433 93.9805 25.9638 94.2722 25.8047C94.5639 25.6456 94.7793 25.4268 94.9185 25.1484C95.061 24.87 95.1323 24.5502 95.1323 24.1889C95.1323 23.8277 95.061 23.5095 94.9185 23.2344C94.7793 22.9593 94.5622 22.7455 94.2672 22.593C93.9756 22.4373 93.5994 22.3594 93.1387 22.3594H91.4483V31H89.6039ZM99.5234 31.1392V29.5881H100.105C100.367 29.5881 100.582 29.55 100.751 29.4737C100.92 29.3975 101.056 29.2881 101.159 29.1456C101.265 29.0031 101.353 28.8374 101.423 28.6484L101.557 28.3054L97.9176 20.8182H99.8466L102.382 26.267L104.575 20.8182H106.474L102.964 29.1207C102.801 29.4787 102.614 29.8118 102.402 30.12C102.19 30.425 101.913 30.6719 101.572 30.8608C101.234 31.0464 100.793 31.1392 100.249 31.1392H99.5234ZM107.787 20.8182H110.045L113.067 28.196H113.187L116.209 20.8182H118.466V31H116.697V24.005H116.602L113.788 30.9702H112.466L109.652 23.9901H109.557V31H107.787V20.8182ZM123.948 20.8182H126.205L129.227 28.196H129.347L132.369 20.8182H134.627V31H132.857V24.005H132.762L129.948 30.9702H128.626L125.812 23.9901H125.718V31H123.948V20.8182ZM145.733 25.9091C145.733 27.0062 145.528 27.9458 145.117 28.728C144.709 29.5069 144.152 30.1035 143.446 30.5178C142.744 30.9321 141.946 31.1392 141.055 31.1392C140.163 31.1392 139.365 30.9321 138.659 30.5178C137.956 30.1001 137.399 29.5019 136.988 28.723C136.58 27.9408 136.377 27.0028 136.377 25.9091C136.377 24.812 136.58 23.8741 136.988 23.0952C137.399 22.313 137.956 21.7147 138.659 21.3004C139.365 20.8861 140.163 20.679 141.055 20.679C141.946 20.679 142.744 20.8861 143.446 21.3004C144.152 21.7147 144.709 22.313 145.117 23.0952C145.528 23.8741 145.733 24.812 145.733 25.9091ZM143.879 25.9091C143.879 25.1368 143.758 24.4856 143.516 23.9553C143.277 23.4216 142.946 23.0189 142.521 22.7472C142.097 22.4721 141.608 22.3345 141.055 22.3345C140.501 22.3345 140.012 22.4721 139.588 22.7472C139.164 23.0189 138.831 23.4216 138.589 23.9553C138.35 24.4856 138.231 25.1368 138.231 25.9091C138.231 26.6813 138.35 27.3343 138.589 27.8679C138.831 28.3982 139.164 28.8009 139.588 29.076C140.012 29.3478 140.501 29.4837 141.055 29.4837C141.608 29.4837 142.097 29.3478 142.521 29.076C142.946 28.8009 143.277 28.3982 143.516 27.8679C143.758 27.3343 143.879 26.6813 143.879 25.9091ZM146.816 31V29.4688L147.104 29.4538C147.495 29.4306 147.805 29.2898 148.034 29.0312C148.266 28.7727 148.436 28.3568 148.546 27.7834C148.658 27.21 148.733 26.4411 148.77 25.4766L148.939 20.8182H155.61V31H153.806V22.3345H150.659L150.5 26.0483C150.453 27.1619 150.331 28.085 150.132 28.8175C149.936 29.55 149.615 30.0968 149.167 30.4581C148.723 30.8194 148.105 31 147.313 31H146.816ZM166.719 25.9091C166.719 27.0062 166.514 27.9458 166.103 28.728C165.695 29.5069 165.138 30.1035 164.433 30.5178C163.73 30.9321 162.933 31.1392 162.041 31.1392C161.15 31.1392 160.351 30.9321 159.645 30.5178C158.942 30.1001 158.385 29.5019 157.974 28.723C157.567 27.9408 157.363 27.0028 157.363 25.9091C157.363 24.812 157.567 23.8741 157.974 23.0952C158.385 22.313 158.942 21.7147 159.645 21.3004C160.351 20.8861 161.15 20.679 162.041 20.679C162.933 20.679 163.73 20.8861 164.433 21.3004C165.138 21.7147 165.695 22.313 166.103 23.0952C166.514 23.8741 166.719 24.812 166.719 25.9091ZM164.865 25.9091C164.865 25.1368 164.744 24.4856 164.502 23.9553C164.263 23.4216 163.932 23.0189 163.508 22.7472C163.084 22.4721 162.595 22.3345 162.041 22.3345C161.488 22.3345 160.999 22.4721 160.575 22.7472C160.15 23.0189 159.817 23.4216 159.575 23.9553C159.337 24.4856 159.217 25.1368 159.217 25.9091C159.217 26.6813 159.337 27.3343 159.575 27.8679C159.817 28.3982 160.15 28.8009 160.575 29.076C160.999 29.3478 161.488 29.4837 162.041 29.4837C162.595 29.4837 163.084 29.3478 163.508 29.076C163.932 28.8009 164.263 28.3982 164.502 27.8679C164.744 27.3343 164.865 26.6813 164.865 25.9091ZM167.802 33.456V29.4936H168.483C168.712 29.3113 168.926 29.0545 169.124 28.723C169.323 28.3916 169.492 27.9375 169.632 27.3608C169.771 26.7841 169.867 26.0384 169.92 25.1236L170.188 20.8182H176.696V29.4936H177.83V33.446H176.06V31H169.572V33.456H167.802ZM170.631 29.4936H174.926V22.3643H171.849L171.69 25.1236C171.647 25.8163 171.577 26.4361 171.481 26.983C171.385 27.5298 171.264 28.0121 171.118 28.4297C170.972 28.844 170.81 29.1986 170.631 29.4936ZM180.58 24.7507H183.165C183.944 24.7507 184.612 24.8783 185.169 25.1335C185.729 25.3854 186.158 25.7417 186.457 26.2024C186.755 26.6631 186.904 27.205 186.904 27.8281C186.904 28.4545 186.755 29.0064 186.457 29.4837C186.158 29.9576 185.729 30.3288 185.169 30.5973C184.612 30.8658 183.944 31 183.165 31H179.352V20.8182H181.202V29.4886H183.165C183.576 29.4886 183.924 29.4107 184.21 29.255C184.495 29.0992 184.71 28.8937 184.856 28.6385C185.005 28.3833 185.08 28.1065 185.08 27.8082C185.08 27.3774 184.914 27.0111 184.582 26.7095C184.254 26.4046 183.782 26.2521 183.165 26.2521H180.58V24.7507ZM189.634 20.8182V31H187.784V20.8182H189.634ZM193.178 20.8182L195.42 24.5469H195.5L197.752 20.8182H199.855L196.718 25.9091L199.905 31H197.767L195.5 27.2962H195.42L193.153 31H191.026L194.242 25.9091L191.065 20.8182H193.178ZM205.686 31.1392V29.5881H206.267C206.529 29.5881 206.744 29.55 206.914 29.4737C207.083 29.3975 207.218 29.2881 207.321 29.1456C207.427 29.0031 207.515 28.8374 207.585 28.6484L207.719 28.3054L204.08 20.8182H206.009L208.544 26.267L210.737 20.8182H212.636L209.126 29.1207C208.963 29.4787 208.776 29.8118 208.564 30.12C208.352 30.425 208.075 30.6719 207.734 30.8608C207.396 31.0464 206.955 31.1392 206.411 31.1392H205.686ZM214.253 20.8182H216.058V24.1392C216.058 24.5701 216.132 24.9115 216.281 25.1634C216.434 25.4152 216.659 25.5959 216.957 25.7053C217.256 25.8146 217.627 25.8693 218.071 25.8693C218.27 25.8693 218.484 25.8627 218.712 25.8494C218.944 25.8329 219.178 25.8113 219.413 25.7848C219.649 25.755 219.874 25.7202 220.089 25.6804C220.305 25.6373 220.497 25.5909 220.666 25.5412V27.0426C220.497 27.0956 220.308 27.1437 220.099 27.1868C219.891 27.2299 219.67 27.2663 219.438 27.2962C219.206 27.326 218.974 27.3492 218.742 27.3658C218.51 27.3823 218.286 27.3906 218.071 27.3906C217.292 27.3906 216.616 27.2796 216.043 27.0575C215.473 26.8321 215.032 26.4808 214.72 26.0036C214.409 25.5263 214.253 24.9048 214.253 24.1392V20.8182ZM220.363 20.8182H222.178V31H220.363V20.8182ZM224.422 31V20.8182H231.044V22.3643H226.267V25.1286H230.701V26.6747H226.267V29.4538H231.084V31H224.422ZM226.252 19.6946C225.99 19.6946 225.763 19.6018 225.571 19.4162C225.382 19.2306 225.287 19.0118 225.287 18.7599C225.287 18.4948 225.382 18.2727 225.571 18.0938C225.763 17.9115 225.99 17.8203 226.252 17.8203C226.52 17.8203 226.746 17.9115 226.928 18.0938C227.114 18.2727 227.206 18.4948 227.206 18.7599C227.206 19.0118 227.114 19.2306 226.928 19.4162C226.746 19.6018 226.52 19.6946 226.252 19.6946ZM229.235 19.6946C228.973 19.6946 228.746 19.6018 228.554 19.4162C228.365 19.2306 228.27 19.0118 228.27 18.7599C228.27 18.4948 228.365 18.2727 228.554 18.0938C228.746 17.9115 228.973 17.8203 229.235 17.8203C229.503 17.8203 229.729 17.9115 229.911 18.0938C230.096 18.2727 230.189 18.4948 230.189 18.7599C230.189 19.0118 230.096 19.2306 229.911 19.4162C229.729 19.6018 229.503 19.6946 229.235 19.6946ZM232.926 31V20.8182H234.771V25.1286H239.489V20.8182H241.338V31H239.489V26.6747H234.771V31H232.926ZM244.592 24.7507H247.177C247.956 24.7507 248.624 24.8783 249.181 25.1335C249.741 25.3854 250.17 25.7417 250.468 26.2024C250.767 26.6631 250.916 27.205 250.916 27.8281C250.916 28.4545 250.767 29.0064 250.468 29.4837C250.17 29.9576 249.741 30.3288 249.181 30.5973C248.624 30.8658 247.956 31 247.177 31H243.364V20.8182H245.213V29.4886H247.177C247.588 29.4886 247.936 29.4107 248.221 29.255C248.506 29.0992 248.722 28.8937 248.868 28.6385C249.017 28.3833 249.091 28.1065 249.091 27.8082C249.091 27.3774 248.926 27.0111 248.594 26.7095C248.266 26.4046 247.794 26.2521 247.177 26.2521H244.592V24.7507ZM253.645 20.8182V31H251.796V20.8182H253.645ZM257.19 20.8182L259.432 24.5469H259.512L261.764 20.8182H263.867L260.73 25.9091L263.917 31H261.779L259.512 27.2962H259.432L257.165 31H255.037L258.254 25.9091L255.077 20.8182H257.19Z" fill="#242424"/>
</g>
<defs>
<clipPath id="clip0_632_504">
<rect width="276" height="34" fill="white"/>
</clipPath>
</defs>
</svg>
