<svg width="16" height="16" viewBox="0 0 16 16" fill="none" xmlns="http://www.w3.org/2000/svg">
<path d="M3.54545 3H2C1.44772 3 1 3.44772 1 4L1 6M3.54545 3L3.54546 1.72728C3.54546 1.32562 3.87107 1.00001 4.27272 1.00001C4.67439 1 5 1.32561 5 1.72728V2.99999M3.54545 3L3.54546 3.27273C3.54546 3.6744 3.87107 4.00001 4.27274 4.00001C4.6744 4 5 3.67439 5 3.27273V2.99999M5 2.99999H8L11 3M12.4545 3H14C14.5523 3 15 3.44772 15 4V6M12.4545 3V3.27273C12.4545 3.67439 12.1289 4 11.7273 4C11.3256 4 11 3.67439 11 3.27273V3M12.4545 3V1.72728C12.4545 1.32562 12.1289 1.00001 11.7273 1.00001C11.3256 1.00001 11 1.32562 11 1.72728V3M1 6V14C1 14.5523 1.44772 15 2 15H14C14.5523 15 15 14.5523 15 14V6M1 6H15" stroke="#A8DFFF" stroke-linecap="round" stroke-linejoin="round"/>
<rect x="1" y="6" width="14" height="9" fill="#A8DFFF"/>
</svg>
